  0
SECTION
  2
HEADER
  9
$ANGBASE
  50
0.0
  9
$ANGDIR
  70
1
  9
$MEASUREMENT
  70
1
  0
ENDSEC
  0
SECTION
  2
TABLES
  0
TABLE
  2
LTYPE
  70
4
  0
LTYPE
  5
40F
  2
CONTINUOUS
  70
0
  3
Solid line
  72
65
  73
0
  40
0.0
  0
LTYPE
  5
410
  2
DASHDOT
 70
0
  3
Dash Dot ____ _ ____ _
 72
65
 73
4
 40
2.0
 49
1.25
 49
-0.25
 49
0.25
 49
-0.25
  0
LTYPE
  5
411
  2
DASHED
 70
0
  3
Dashed __ __ __ __ __
 72
65
 73
2
 40
0.75
 49
0.5
 49
-0.25
  0
LTYPE
  5
43B
  2
DOTTED
 70
0
  3
Dotted .  .  .  .
 72
65
 73
2
 40
0.2
 49
0.0
 49
-0.2
  0
ENDTAB
  0
TABLE
  2
STYLE
  70
4
  0
STYLE
  2
KICAD
  70
0
  40
0
  41
1
  42
1
  50
0
  71
0
  3
isocp.shx
  0
STYLE
  2
KICADB
  70
0
  40
0
  41
1
  42
1
  50
0
  71
0
  3
isocp.shx
  0
STYLE
  2
KICADI
  70
0
  40
0
  41
1
  42
1
  50
15
  71
0
  3
isocp.shx
  0
STYLE
  2
KICADBI
  70
0
  40
0
  41
1
  42
1
  50
15
  71
0
  3
isocp.shx
  0
ENDTAB
  0
TABLE
  2
LAYER
  70
1
  0
LAYER
  2
BLACK
  70
0
  62
7
  6
CONTINUOUS
  0
ENDTAB
  0
ENDSEC
  0
SECTION
  2
ENTITIES
0
LINE
8
BLACK
6
CONTINUOUS
10
248.4600759999999866
20
-148.935340999999994
11
248.6487599999999816
21
-149.0084369999999865
0
LINE
8
BLACK
6
CONTINUOUS
10
248.6487599999999816
20
-149.0084369999999865
11
248.8207999999999913
21
-149.1149599999999964
0
LINE
8
BLACK
6
CONTINUOUS
10
248.8207999999999913
20
-149.1149599999999964
11
248.9703370000000007
21
-149.2512810000000059
0
LINE
8
BLACK
6
CONTINUOUS
10
248.9703370000000007
20
-149.2512810000000059
11
249.0922779999999932
21
-149.4127579999999966
0
LINE
8
BLACK
6
CONTINUOUS
10
249.0922779999999932
20
-149.4127579999999966
11
249.1824729999999875
21
-149.5938919999999825
0
LINE
8
BLACK
6
CONTINUOUS
10
249.1824729999999875
20
-149.5938919999999825
11
249.2378479999999854
21
-149.7885149999999896
0
LINE
8
BLACK
6
CONTINUOUS
10
249.2378479999999854
20
-149.7885149999999896
11
249.2565179999999998
21
-149.9899999999999807
0
LINE
8
BLACK
6
CONTINUOUS
10
249.2565179999999998
20
-149.9899999999999807
11
249.2378479999999854
21
-150.1914850000000001
0
LINE
8
BLACK
6
CONTINUOUS
10
249.2378479999999854
20
-150.1914850000000001
11
249.1824729999999875
21
-150.3861080000000072
0
LINE
8
BLACK
6
CONTINUOUS
10
249.1824729999999875
20
-150.3861080000000072
11
249.0922779999999932
21
-150.5672419999999931
0
LINE
8
BLACK
6
CONTINUOUS
10
249.0922779999999932
20
-150.5672419999999931
11
248.9703370000000007
21
-150.7287189999999839
0
LINE
8
BLACK
6
CONTINUOUS
10
248.9703370000000007
20
-150.7287189999999839
11
248.8207999999999913
21
-150.8650399999999934
0
LINE
8
BLACK
6
CONTINUOUS
10
248.8207999999999913
20
-150.8650399999999934
11
248.6487599999999816
21
-150.9715630000000033
0
LINE
8
BLACK
6
CONTINUOUS
10
248.6487599999999816
20
-150.9715630000000033
11
248.4600759999999866
21
-151.0446589999999958
0
LINE
8
BLACK
6
CONTINUOUS
10
248.4600759999999866
20
-151.0446589999999958
11
248.2611739999999827
21
-151.0818399999999997
0
LINE
8
BLACK
6
CONTINUOUS
10
248.2611739999999827
20
-151.0818399999999997
11
248.0588259999999821
21
-151.0818399999999997
0
LINE
8
BLACK
6
CONTINUOUS
10
248.0588259999999821
20
-151.0818399999999997
11
247.8599239999999782
21
-151.0446589999999958
0
LINE
8
BLACK
6
CONTINUOUS
10
247.8599239999999782
20
-151.0446589999999958
11
247.6712399999999832
21
-150.9715630000000033
0
LINE
8
BLACK
6
CONTINUOUS
10
247.6712399999999832
20
-150.9715630000000033
11
247.4992000000000019
21
-150.8650399999999934
0
LINE
8
BLACK
6
CONTINUOUS
10
247.4992000000000019
20
-150.8650399999999934
11
247.3496629999999925
21
-150.7287189999999839
0
LINE
8
BLACK
6
CONTINUOUS
10
247.3496629999999925
20
-150.7287189999999839
11
247.227722
21
-150.5672419999999931
0
LINE
8
BLACK
6
CONTINUOUS
10
247.227722
20
-150.5672419999999931
11
247.1375269999999773
21
-150.3861080000000072
0
LINE
8
BLACK
6
CONTINUOUS
10
247.1375269999999773
20
-150.3861080000000072
11
247.0821519999999794
21
-150.1914850000000001
0
LINE
8
BLACK
6
CONTINUOUS
10
247.0821519999999794
20
-150.1914850000000001
11
247.0634819999999934
21
-149.9899999999999807
0
LINE
8
BLACK
6
CONTINUOUS
10
247.0634819999999934
20
-149.9899999999999807
11
247.0821519999999794
21
-149.7885149999999896
0
LINE
8
BLACK
6
CONTINUOUS
10
247.0821519999999794
20
-149.7885149999999896
11
247.1375269999999773
21
-149.5938919999999825
0
LINE
8
BLACK
6
CONTINUOUS
10
247.1375269999999773
20
-149.5938919999999825
11
247.227722
21
-149.4127579999999966
0
LINE
8
BLACK
6
CONTINUOUS
10
247.227722
20
-149.4127579999999966
11
247.3496629999999925
21
-149.2512810000000059
0
LINE
8
BLACK
6
CONTINUOUS
10
247.3496629999999925
20
-149.2512810000000059
11
247.4992000000000019
21
-149.1149599999999964
0
LINE
8
BLACK
6
CONTINUOUS
10
247.4992000000000019
20
-149.1149599999999964
11
247.6712399999999832
21
-149.0084369999999865
0
LINE
8
BLACK
6
CONTINUOUS
10
247.6712399999999832
20
-149.0084369999999865
11
247.8599239999999782
21
-148.935340999999994
0
LINE
8
BLACK
6
CONTINUOUS
10
247.8599239999999782
20
-148.935340999999994
11
248.0588259999999821
21
-148.8981599999999901
0
LINE
8
BLACK
6
CONTINUOUS
10
248.0588259999999821
20
-148.8981599999999901
11
248.2611739999999827
21
-148.8981599999999901
0
LINE
8
BLACK
6
CONTINUOUS
10
248.2611739999999827
20
-148.8981599999999901
11
248.4600759999999866
21
-148.935340999999994
0
LINE
8
BLACK
6
CONTINUOUS
10
247.177899999999994
20
-150.1853519999999946
11
247.2348819999999989
21
-150.3731960000000072
0
LINE
8
BLACK
6
CONTINUOUS
10
247.2348819999999989
20
-150.3731960000000072
11
247.3274159999999995
21
-150.5463149999999928
0
LINE
8
BLACK
6
CONTINUOUS
10
247.3274159999999995
20
-150.5463149999999928
11
247.4519459999999924
21
-150.6980539999999849
0
LINE
8
BLACK
6
CONTINUOUS
10
247.4519459999999924
20
-150.6980539999999849
11
247.6036849999999845
21
-150.8225840000000062
0
LINE
8
BLACK
6
CONTINUOUS
10
247.6036849999999845
20
-150.8225840000000062
11
247.7768039999999985
21
-150.9151180000000068
0
LINE
8
BLACK
6
CONTINUOUS
10
247.7768039999999985
20
-150.9151180000000068
11
247.9646479999999826
21
-150.9720999999999833
0
LINE
8
BLACK
6
CONTINUOUS
10
247.9646479999999826
20
-150.9720999999999833
11
248.1599999999999966
21
-150.9913399999999797
0
LINE
8
BLACK
6
CONTINUOUS
10
248.1599999999999966
20
-150.9913399999999797
11
248.3553519999999821
21
-150.9720999999999833
0
LINE
8
BLACK
6
CONTINUOUS
10
248.3553519999999821
20
-150.9720999999999833
11
248.5431959999999947
21
-150.9151180000000068
0
LINE
8
BLACK
6
CONTINUOUS
10
248.5431959999999947
20
-150.9151180000000068
11
248.7163149999999803
21
-150.8225840000000062
0
LINE
8
BLACK
6
CONTINUOUS
10
248.7163149999999803
20
-150.8225840000000062
11
248.8680540000000008
21
-150.6980539999999849
0
LINE
8
BLACK
6
CONTINUOUS
10
248.8680540000000008
20
-150.6980539999999849
11
248.9925839999999937
21
-150.5463149999999928
0
LINE
8
BLACK
6
CONTINUOUS
10
248.9925839999999937
20
-150.5463149999999928
11
249.0851179999999943
21
-150.3731960000000072
0
LINE
8
BLACK
6
CONTINUOUS
10
249.0851179999999943
20
-150.3731960000000072
11
249.1420999999999992
21
-150.1853519999999946
0
LINE
8
BLACK
6
CONTINUOUS
10
249.1420999999999992
20
-150.1853519999999946
11
249.1613399999999956
21
-149.9899999999999807
0
LINE
8
BLACK
6
CONTINUOUS
10
249.1613399999999956
20
-149.9899999999999807
11
249.1420999999999992
21
-149.7946479999999951
0
LINE
8
BLACK
6
CONTINUOUS
10
249.1420999999999992
20
-149.7946479999999951
11
249.0851179999999943
21
-149.6068039999999826
0
LINE
8
BLACK
6
CONTINUOUS
10
249.0851179999999943
20
-149.6068039999999826
11
248.9925839999999937
21
-149.433684999999997
0
LINE
8
BLACK
6
CONTINUOUS
10
248.9925839999999937
20
-149.433684999999997
11
248.8680540000000008
21
-149.2819460000000049
0
LINE
8
BLACK
6
CONTINUOUS
10
248.8680540000000008
20
-149.2819460000000049
11
248.7163149999999803
21
-149.1574159999999836
0
LINE
8
BLACK
6
CONTINUOUS
10
248.7163149999999803
20
-149.1574159999999836
11
248.5431959999999947
21
-149.064881999999983
0
LINE
8
BLACK
6
CONTINUOUS
10
248.5431959999999947
20
-149.064881999999983
11
248.3553519999999821
21
-149.0079000000000065
0
LINE
8
BLACK
6
CONTINUOUS
10
248.3553519999999821
20
-149.0079000000000065
11
248.1599999999999966
21
-148.9886599999999817
0
LINE
8
BLACK
6
CONTINUOUS
10
248.1599999999999966
20
-148.9886599999999817
11
247.9646479999999826
21
-149.0079000000000065
0
LINE
8
BLACK
6
CONTINUOUS
10
247.9646479999999826
20
-149.0079000000000065
11
247.7768039999999985
21
-149.064881999999983
0
LINE
8
BLACK
6
CONTINUOUS
10
247.7768039999999985
20
-149.064881999999983
11
247.6036849999999845
21
-149.1574159999999836
0
LINE
8
BLACK
6
CONTINUOUS
10
247.6036849999999845
20
-149.1574159999999836
11
247.4519459999999924
21
-149.2819460000000049
0
LINE
8
BLACK
6
CONTINUOUS
10
247.4519459999999924
20
-149.2819460000000049
11
247.3274159999999995
21
-149.433684999999997
0
LINE
8
BLACK
6
CONTINUOUS
10
247.3274159999999995
20
-149.433684999999997
11
247.2348819999999989
21
-149.6068039999999826
0
LINE
8
BLACK
6
CONTINUOUS
10
247.2348819999999989
20
-149.6068039999999826
11
247.177899999999994
21
-149.7946479999999951
0
LINE
8
BLACK
6
CONTINUOUS
10
247.177899999999994
20
-149.7946479999999951
11
247.1586599999999976
21
-149.9899999999999807
0
LINE
8
BLACK
6
CONTINUOUS
10
247.1586599999999976
20
-149.9899999999999807
11
247.177899999999994
21
-150.1853519999999946
0
LINE
8
BLACK
6
CONTINUOUS
10
156.3362060000000042
20
-148.8489429999999913
11
156.5224560000000054
21
-148.9210970000000032
0
LINE
8
BLACK
6
CONTINUOUS
10
156.5224560000000054
20
-148.9210970000000032
11
156.69227699999999
21
-149.0262449999999887
0
LINE
8
BLACK
6
CONTINUOUS
10
156.69227699999999
20
-149.0262449999999887
11
156.839886000000007
21
-149.1608080000000029
0
LINE
8
BLACK
6
CONTINUOUS
10
156.839886000000007
20
-149.1608080000000029
11
156.9602549999999894
21
-149.3202019999999948
0
LINE
8
BLACK
6
CONTINUOUS
10
156.9602549999999894
20
-149.3202019999999948
11
157.0492859999999951
21
-149.4990009999999927
0
LINE
8
BLACK
6
CONTINUOUS
10
157.0492859999999951
20
-149.4990009999999927
11
157.1039459999999792
21
-149.6911139999999989
0
LINE
8
BLACK
6
CONTINUOUS
10
157.1039459999999792
20
-149.6911139999999989
11
157.1223760000000027
21
-149.8899999999999864
0
LINE
8
BLACK
6
CONTINUOUS
10
157.1223760000000027
20
-149.8899999999999864
11
157.1039459999999792
21
-150.0888860000000022
0
LINE
8
BLACK
6
CONTINUOUS
10
157.1039459999999792
20
-150.0888860000000022
11
157.0492859999999951
21
-150.28099899999998
0
LINE
8
BLACK
6
CONTINUOUS
10
157.0492859999999951
20
-150.28099899999998
11
156.9602549999999894
21
-150.4597980000000064
0
LINE
8
BLACK
6
CONTINUOUS
10
156.9602549999999894
20
-150.4597980000000064
11
156.839886000000007
21
-150.6191919999999982
0
LINE
8
BLACK
6
CONTINUOUS
10
156.839886000000007
20
-150.6191919999999982
11
156.69227699999999
21
-150.753754999999984
0
LINE
8
BLACK
6
CONTINUOUS
10
156.69227699999999
20
-150.753754999999984
11
156.5224560000000054
21
-150.858902999999998
0
LINE
8
BLACK
6
CONTINUOUS
10
156.5224560000000054
20
-150.858902999999998
11
156.3362060000000042
21
-150.9310569999999814
0
LINE
8
BLACK
6
CONTINUOUS
10
156.3362060000000042
20
-150.9310569999999814
11
156.1398690000000045
21
-150.9677590000000009
0
LINE
8
BLACK
6
CONTINUOUS
10
156.1398690000000045
20
-150.9677590000000009
11
155.9401309999999796
21
-150.9677590000000009
0
LINE
8
BLACK
6
CONTINUOUS
10
155.9401309999999796
20
-150.9677590000000009
11
155.7437939999999799
21
-150.9310569999999814
0
LINE
8
BLACK
6
CONTINUOUS
10
155.7437939999999799
20
-150.9310569999999814
11
155.5575440000000071
21
-150.858902999999998
0
LINE
8
BLACK
6
CONTINUOUS
10
155.5575440000000071
20
-150.858902999999998
11
155.387722999999994
21
-150.753754999999984
0
LINE
8
BLACK
6
CONTINUOUS
10
155.387722999999994
20
-150.753754999999984
11
155.2401140000000055
21
-150.6191919999999982
0
LINE
8
BLACK
6
CONTINUOUS
10
155.2401140000000055
20
-150.6191919999999982
11
155.1197449999999947
21
-150.4597980000000064
0
LINE
8
BLACK
6
CONTINUOUS
10
155.1197449999999947
20
-150.4597980000000064
11
155.030713999999989
21
-150.28099899999998
0
LINE
8
BLACK
6
CONTINUOUS
10
155.030713999999989
20
-150.28099899999998
11
154.9760540000000049
21
-150.0888860000000022
0
LINE
8
BLACK
6
CONTINUOUS
10
154.9760540000000049
20
-150.0888860000000022
11
154.9576239999999814
21
-149.8899999999999864
0
LINE
8
BLACK
6
CONTINUOUS
10
154.9576239999999814
20
-149.8899999999999864
11
154.9760540000000049
21
-149.6911139999999989
0
LINE
8
BLACK
6
CONTINUOUS
10
154.9760540000000049
20
-149.6911139999999989
11
155.030713999999989
21
-149.4990009999999927
0
LINE
8
BLACK
6
CONTINUOUS
10
155.030713999999989
20
-149.4990009999999927
11
155.1197449999999947
21
-149.3202019999999948
0
LINE
8
BLACK
6
CONTINUOUS
10
155.1197449999999947
20
-149.3202019999999948
11
155.2401140000000055
21
-149.1608080000000029
0
LINE
8
BLACK
6
CONTINUOUS
10
155.2401140000000055
20
-149.1608080000000029
11
155.387722999999994
21
-149.0262449999999887
0
LINE
8
BLACK
6
CONTINUOUS
10
155.387722999999994
20
-149.0262449999999887
11
155.5575440000000071
21
-148.9210970000000032
0
LINE
8
BLACK
6
CONTINUOUS
10
155.5575440000000071
20
-148.9210970000000032
11
155.7437939999999799
21
-148.8489429999999913
0
LINE
8
BLACK
6
CONTINUOUS
10
155.7437939999999799
20
-148.8489429999999913
11
155.9401309999999796
21
-148.8122410000000002
0
LINE
8
BLACK
6
CONTINUOUS
10
155.9401309999999796
20
-148.8122410000000002
11
156.1398690000000045
21
-148.8122410000000002
0
LINE
8
BLACK
6
CONTINUOUS
10
156.1398690000000045
20
-148.8122410000000002
11
156.3362060000000042
21
-148.8489429999999913
0
LINE
8
BLACK
6
CONTINUOUS
10
155.0718379999999854
20
-150.0825789999999813
11
155.128011999999984
21
-150.2677579999999864
0
LINE
8
BLACK
6
CONTINUOUS
10
155.128011999999984
20
-150.2677579999999864
11
155.2192320000000052
21
-150.4384189999999819
0
LINE
8
BLACK
6
CONTINUOUS
10
155.2192320000000052
20
-150.4384189999999819
11
155.3419939999999997
21
-150.5880060000000071
0
LINE
8
BLACK
6
CONTINUOUS
10
155.3419939999999997
20
-150.5880060000000071
11
155.4915809999999965
21
-150.7107680000000016
0
LINE
8
BLACK
6
CONTINUOUS
10
155.4915809999999965
20
-150.7107680000000016
11
155.662241999999992
21
-150.8019879999999944
0
LINE
8
BLACK
6
CONTINUOUS
10
155.662241999999992
20
-150.8019879999999944
11
155.8474209999999971
21
-150.858161999999993
0
LINE
8
BLACK
6
CONTINUOUS
10
155.8474209999999971
20
-150.858161999999993
11
156.039999999999992
21
-150.8771289999999965
0
LINE
8
BLACK
6
CONTINUOUS
10
156.039999999999992
20
-150.8771289999999965
11
156.232578999999987
21
-150.858161999999993
0
LINE
8
BLACK
6
CONTINUOUS
10
156.232578999999987
20
-150.858161999999993
11
156.4177579999999921
21
-150.8019879999999944
0
LINE
8
BLACK
6
CONTINUOUS
10
156.4177579999999921
20
-150.8019879999999944
11
156.5884189999999876
21
-150.7107680000000016
0
LINE
8
BLACK
6
CONTINUOUS
10
156.5884189999999876
20
-150.7107680000000016
11
156.7380059999999844
21
-150.5880060000000071
0
LINE
8
BLACK
6
CONTINUOUS
10
156.7380059999999844
20
-150.5880060000000071
11
156.8607679999999789
21
-150.4384189999999819
0
LINE
8
BLACK
6
CONTINUOUS
10
156.8607679999999789
20
-150.4384189999999819
11
156.9519880000000001
21
-150.2677579999999864
0
LINE
8
BLACK
6
CONTINUOUS
10
156.9519880000000001
20
-150.2677579999999864
11
157.0081619999999987
21
-150.0825789999999813
0
LINE
8
BLACK
6
CONTINUOUS
10
157.0081619999999987
20
-150.0825789999999813
11
157.0271290000000022
21
-149.8899999999999864
0
LINE
8
BLACK
6
CONTINUOUS
10
157.0271290000000022
20
-149.8899999999999864
11
157.0081619999999987
21
-149.6974209999999914
0
LINE
8
BLACK
6
CONTINUOUS
10
157.0081619999999987
20
-149.6974209999999914
11
156.9519880000000001
21
-149.5122419999999863
0
LINE
8
BLACK
6
CONTINUOUS
10
156.9519880000000001
20
-149.5122419999999863
11
156.8607679999999789
21
-149.3415809999999908
0
LINE
8
BLACK
6
CONTINUOUS
10
156.8607679999999789
20
-149.3415809999999908
11
156.7380059999999844
21
-149.191993999999994
0
LINE
8
BLACK
6
CONTINUOUS
10
156.7380059999999844
20
-149.191993999999994
11
156.5884189999999876
21
-149.0692319999999995
0
LINE
8
BLACK
6
CONTINUOUS
10
156.5884189999999876
20
-149.0692319999999995
11
156.4177579999999921
21
-148.9780120000000068
0
LINE
8
BLACK
6
CONTINUOUS
10
156.4177579999999921
20
-148.9780120000000068
11
156.232578999999987
21
-148.9218379999999797
0
LINE
8
BLACK
6
CONTINUOUS
10
156.232578999999987
20
-148.9218379999999797
11
156.039999999999992
21
-148.9028710000000046
0
LINE
8
BLACK
6
CONTINUOUS
10
156.039999999999992
20
-148.9028710000000046
11
155.8474209999999971
21
-148.9218379999999797
0
LINE
8
BLACK
6
CONTINUOUS
10
155.8474209999999971
20
-148.9218379999999797
11
155.662241999999992
21
-148.9780120000000068
0
LINE
8
BLACK
6
CONTINUOUS
10
155.662241999999992
20
-148.9780120000000068
11
155.4915809999999965
21
-149.0692319999999995
0
LINE
8
BLACK
6
CONTINUOUS
10
155.4915809999999965
20
-149.0692319999999995
11
155.3419939999999997
21
-149.191993999999994
0
LINE
8
BLACK
6
CONTINUOUS
10
155.3419939999999997
20
-149.191993999999994
11
155.2192320000000052
21
-149.3415809999999908
0
LINE
8
BLACK
6
CONTINUOUS
10
155.2192320000000052
20
-149.3415809999999908
11
155.128011999999984
21
-149.5122419999999863
0
LINE
8
BLACK
6
CONTINUOUS
10
155.128011999999984
20
-149.5122419999999863
11
155.0718379999999854
21
-149.6974209999999914
0
LINE
8
BLACK
6
CONTINUOUS
10
155.0718379999999854
20
-149.6974209999999914
11
155.0528709999999819
21
-149.8899999999999864
0
LINE
8
BLACK
6
CONTINUOUS
10
155.0528709999999819
20
-149.8899999999999864
11
155.0718379999999854
21
-150.0825789999999813
0
LINE
8
BLACK
6
CONTINUOUS
10
107.33620599999999
20
-132.54894299999998
11
107.5224559999999911
21
-132.6210969999999918
0
LINE
8
BLACK
6
CONTINUOUS
10
107.5224559999999911
20
-132.6210969999999918
11
107.69227699999999
21
-132.7262450000000058
0
LINE
8
BLACK
6
CONTINUOUS
10
107.69227699999999
20
-132.7262450000000058
11
107.8398859999999928
21
-132.8608079999999916
0
LINE
8
BLACK
6
CONTINUOUS
10
107.8398859999999928
20
-132.8608079999999916
11
107.9602549999999894
21
-133.0202019999999834
0
LINE
8
BLACK
6
CONTINUOUS
10
107.9602549999999894
20
-133.0202019999999834
11
108.0492859999999951
21
-133.1990009999999813
0
LINE
8
BLACK
6
CONTINUOUS
10
108.0492859999999951
20
-133.1990009999999813
11
108.1039459999999934
21
-133.3911139999999875
0
LINE
8
BLACK
6
CONTINUOUS
10
108.1039459999999934
20
-133.3911139999999875
11
108.1223759999999885
21
-133.5900000000000034
0
LINE
8
BLACK
6
CONTINUOUS
10
108.1223759999999885
20
-133.5900000000000034
11
108.1039459999999934
21
-133.7888859999999909
0
LINE
8
BLACK
6
CONTINUOUS
10
108.1039459999999934
20
-133.7888859999999909
11
108.0492859999999951
21
-133.9809989999999971
0
LINE
8
BLACK
6
CONTINUOUS
10
108.0492859999999951
20
-133.9809989999999971
11
107.9602549999999894
21
-134.159797999999995
0
LINE
8
BLACK
6
CONTINUOUS
10
107.9602549999999894
20
-134.159797999999995
11
107.8398859999999928
21
-134.3191919999999868
0
LINE
8
BLACK
6
CONTINUOUS
10
107.8398859999999928
20
-134.3191919999999868
11
107.69227699999999
21
-134.453755000000001
0
LINE
8
BLACK
6
CONTINUOUS
10
107.69227699999999
20
-134.453755000000001
11
107.5224559999999911
21
-134.5589029999999866
0
LINE
8
BLACK
6
CONTINUOUS
10
107.5224559999999911
20
-134.5589029999999866
11
107.33620599999999
21
-134.6310569999999984
0
LINE
8
BLACK
6
CONTINUOUS
10
107.33620599999999
20
-134.6310569999999984
11
107.1398689999999903
21
-134.6677589999999896
0
LINE
8
BLACK
6
CONTINUOUS
10
107.1398689999999903
20
-134.6677589999999896
11
106.9401309999999938
21
-134.6677589999999896
0
LINE
8
BLACK
6
CONTINUOUS
10
106.9401309999999938
20
-134.6677589999999896
11
106.7437939999999941
21
-134.6310569999999984
0
LINE
8
BLACK
6
CONTINUOUS
10
106.7437939999999941
20
-134.6310569999999984
11
106.5575439999999929
21
-134.5589029999999866
0
LINE
8
BLACK
6
CONTINUOUS
10
106.5575439999999929
20
-134.5589029999999866
11
106.387722999999994
21
-134.453755000000001
0
LINE
8
BLACK
6
CONTINUOUS
10
106.387722999999994
20
-134.453755000000001
11
106.2401139999999913
21
-134.3191919999999868
0
LINE
8
BLACK
6
CONTINUOUS
10
106.2401139999999913
20
-134.3191919999999868
11
106.1197449999999947
21
-134.159797999999995
0
LINE
8
BLACK
6
CONTINUOUS
10
106.1197449999999947
20
-134.159797999999995
11
106.030713999999989
21
-133.9809989999999971
0
LINE
8
BLACK
6
CONTINUOUS
10
106.030713999999989
20
-133.9809989999999971
11
105.9760539999999907
21
-133.7888859999999909
0
LINE
8
BLACK
6
CONTINUOUS
10
105.9760539999999907
20
-133.7888859999999909
11
105.9576239999999956
21
-133.5900000000000034
0
LINE
8
BLACK
6
CONTINUOUS
10
105.9576239999999956
20
-133.5900000000000034
11
105.9760539999999907
21
-133.3911139999999875
0
LINE
8
BLACK
6
CONTINUOUS
10
105.9760539999999907
20
-133.3911139999999875
11
106.030713999999989
21
-133.1990009999999813
0
LINE
8
BLACK
6
CONTINUOUS
10
106.030713999999989
20
-133.1990009999999813
11
106.1197449999999947
21
-133.0202019999999834
0
LINE
8
BLACK
6
CONTINUOUS
10
106.1197449999999947
20
-133.0202019999999834
11
106.2401139999999913
21
-132.8608079999999916
0
LINE
8
BLACK
6
CONTINUOUS
10
106.2401139999999913
20
-132.8608079999999916
11
106.387722999999994
21
-132.7262450000000058
0
LINE
8
BLACK
6
CONTINUOUS
10
106.387722999999994
20
-132.7262450000000058
11
106.5575439999999929
21
-132.6210969999999918
0
LINE
8
BLACK
6
CONTINUOUS
10
106.5575439999999929
20
-132.6210969999999918
11
106.7437939999999941
21
-132.54894299999998
0
LINE
8
BLACK
6
CONTINUOUS
10
106.7437939999999941
20
-132.54894299999998
11
106.9401309999999938
21
-132.5122409999999888
0
LINE
8
BLACK
6
CONTINUOUS
10
106.9401309999999938
20
-132.5122409999999888
11
107.1398689999999903
21
-132.5122409999999888
0
LINE
8
BLACK
6
CONTINUOUS
10
107.1398689999999903
20
-132.5122409999999888
11
107.33620599999999
21
-132.54894299999998
0
LINE
8
BLACK
6
CONTINUOUS
10
106.0718379999999996
20
-133.7825789999999984
11
106.1280119999999982
21
-133.9677580000000034
0
LINE
8
BLACK
6
CONTINUOUS
10
106.1280119999999982
20
-133.9677580000000034
11
106.219231999999991
21
-134.138418999999999
0
LINE
8
BLACK
6
CONTINUOUS
10
106.219231999999991
20
-134.138418999999999
11
106.3419939999999997
21
-134.2880059999999958
0
LINE
8
BLACK
6
CONTINUOUS
10
106.3419939999999997
20
-134.2880059999999958
11
106.4915809999999965
21
-134.4107679999999903
0
LINE
8
BLACK
6
CONTINUOUS
10
106.4915809999999965
20
-134.4107679999999903
11
106.662241999999992
21
-134.501987999999983
0
LINE
8
BLACK
6
CONTINUOUS
10
106.662241999999992
20
-134.501987999999983
11
106.8474209999999971
21
-134.5581619999999816
0
LINE
8
BLACK
6
CONTINUOUS
10
106.8474209999999971
20
-134.5581619999999816
11
107.039999999999992
21
-134.5771289999999851
0
LINE
8
BLACK
6
CONTINUOUS
10
107.039999999999992
20
-134.5771289999999851
11
107.2325790000000012
21
-134.5581619999999816
0
LINE
8
BLACK
6
CONTINUOUS
10
107.2325790000000012
20
-134.5581619999999816
11
107.4177579999999921
21
-134.501987999999983
0
LINE
8
BLACK
6
CONTINUOUS
10
107.4177579999999921
20
-134.501987999999983
11
107.5884190000000018
21
-134.4107679999999903
0
LINE
8
BLACK
6
CONTINUOUS
10
107.5884190000000018
20
-134.4107679999999903
11
107.7380059999999986
21
-134.2880059999999958
0
LINE
8
BLACK
6
CONTINUOUS
10
107.7380059999999986
20
-134.2880059999999958
11
107.8607679999999931
21
-134.138418999999999
0
LINE
8
BLACK
6
CONTINUOUS
10
107.8607679999999931
20
-134.138418999999999
11
107.9519880000000001
21
-133.9677580000000034
0
LINE
8
BLACK
6
CONTINUOUS
10
107.9519880000000001
20
-133.9677580000000034
11
108.0081619999999987
21
-133.7825789999999984
0
LINE
8
BLACK
6
CONTINUOUS
10
108.0081619999999987
20
-133.7825789999999984
11
108.0271290000000022
21
-133.5900000000000034
0
LINE
8
BLACK
6
CONTINUOUS
10
108.0271290000000022
20
-133.5900000000000034
11
108.0081619999999987
21
-133.39742099999998
0
LINE
8
BLACK
6
CONTINUOUS
10
108.0081619999999987
20
-133.39742099999998
11
107.9519880000000001
21
-133.2122420000000034
0
LINE
8
BLACK
6
CONTINUOUS
10
107.9519880000000001
20
-133.2122420000000034
11
107.8607679999999931
21
-133.0415810000000079
0
LINE
8
BLACK
6
CONTINUOUS
10
107.8607679999999931
20
-133.0415810000000079
11
107.7380059999999986
21
-132.8919939999999826
0
LINE
8
BLACK
6
CONTINUOUS
10
107.7380059999999986
20
-132.8919939999999826
11
107.5884190000000018
21
-132.7692319999999881
0
LINE
8
BLACK
6
CONTINUOUS
10
107.5884190000000018
20
-132.7692319999999881
11
107.4177579999999921
21
-132.6780119999999954
0
LINE
8
BLACK
6
CONTINUOUS
10
107.4177579999999921
20
-132.6780119999999954
11
107.2325790000000012
21
-132.6218379999999968
0
LINE
8
BLACK
6
CONTINUOUS
10
107.2325790000000012
20
-132.6218379999999968
11
107.039999999999992
21
-132.6028709999999933
0
LINE
8
BLACK
6
CONTINUOUS
10
107.039999999999992
20
-132.6028709999999933
11
106.8474209999999971
21
-132.6218379999999968
0
LINE
8
BLACK
6
CONTINUOUS
10
106.8474209999999971
20
-132.6218379999999968
11
106.662241999999992
21
-132.6780119999999954
0
LINE
8
BLACK
6
CONTINUOUS
10
106.662241999999992
20
-132.6780119999999954
11
106.4915809999999965
21
-132.7692319999999881
0
LINE
8
BLACK
6
CONTINUOUS
10
106.4915809999999965
20
-132.7692319999999881
11
106.3419939999999997
21
-132.8919939999999826
0
LINE
8
BLACK
6
CONTINUOUS
10
106.3419939999999997
20
-132.8919939999999826
11
106.219231999999991
21
-133.0415810000000079
0
LINE
8
BLACK
6
CONTINUOUS
10
106.219231999999991
20
-133.0415810000000079
11
106.1280119999999982
21
-133.2122420000000034
0
LINE
8
BLACK
6
CONTINUOUS
10
106.1280119999999982
20
-133.2122420000000034
11
106.0718379999999996
21
-133.39742099999998
0
LINE
8
BLACK
6
CONTINUOUS
10
106.0718379999999996
20
-133.39742099999998
11
106.0528709999999961
21
-133.5900000000000034
0
LINE
8
BLACK
6
CONTINUOUS
10
106.0528709999999961
20
-133.5900000000000034
11
106.0718379999999996
21
-133.7825789999999984
0
LINE
8
BLACK
6
CONTINUOUS
10
297.8600759999999923
20
-132.0353409999999883
11
298.0487599999999588
21
-132.1084369999999808
0
LINE
8
BLACK
6
CONTINUOUS
10
298.0487599999999588
20
-132.1084369999999808
11
298.220799999999997
21
-132.2149599999999907
0
LINE
8
BLACK
6
CONTINUOUS
10
298.220799999999997
20
-132.2149599999999907
11
298.3703370000000064
21
-132.3512810000000002
0
LINE
8
BLACK
6
CONTINUOUS
10
298.3703370000000064
20
-132.3512810000000002
11
298.4922779999999989
21
-132.5127579999999909
0
LINE
8
BLACK
6
CONTINUOUS
10
298.4922779999999989
20
-132.5127579999999909
11
298.5824729999999931
21
-132.6938920000000053
0
LINE
8
BLACK
6
CONTINUOUS
10
298.5824729999999931
20
-132.6938920000000053
11
298.6378479999999627
21
-132.888514999999984
0
LINE
8
BLACK
6
CONTINUOUS
10
298.6378479999999627
20
-132.888514999999984
11
298.6565180000000055
21
-133.0900000000000034
0
LINE
8
BLACK
6
CONTINUOUS
10
298.6565180000000055
20
-133.0900000000000034
11
298.6378479999999627
21
-133.2914849999999944
0
LINE
8
BLACK
6
CONTINUOUS
10
298.6378479999999627
20
-133.2914849999999944
11
298.5824729999999931
21
-133.4861080000000015
0
LINE
8
BLACK
6
CONTINUOUS
10
298.5824729999999931
20
-133.4861080000000015
11
298.4922779999999989
21
-133.6672419999999875
0
LINE
8
BLACK
6
CONTINUOUS
10
298.4922779999999989
20
-133.6672419999999875
11
298.3703370000000064
21
-133.8287190000000066
0
LINE
8
BLACK
6
CONTINUOUS
10
298.3703370000000064
20
-133.8287190000000066
11
298.220799999999997
21
-133.9650399999999877
0
LINE
8
BLACK
6
CONTINUOUS
10
298.220799999999997
20
-133.9650399999999877
11
298.0487599999999588
21
-134.0715629999999976
0
LINE
8
BLACK
6
CONTINUOUS
10
298.0487599999999588
20
-134.0715629999999976
11
297.8600759999999923
21
-134.1446589999999901
0
LINE
8
BLACK
6
CONTINUOUS
10
297.8600759999999923
20
-134.1446589999999901
11
297.66117399999996
21
-134.181839999999994
0
LINE
8
BLACK
6
CONTINUOUS
10
297.66117399999996
20
-134.181839999999994
11
297.4588259999999877
21
-134.181839999999994
0
LINE
8
BLACK
6
CONTINUOUS
10
297.4588259999999877
20
-134.181839999999994
11
297.2599240000000123
21
-134.1446589999999901
0
LINE
8
BLACK
6
CONTINUOUS
10
297.2599240000000123
20
-134.1446589999999901
11
297.0712399999999889
21
-134.0715629999999976
0
LINE
8
BLACK
6
CONTINUOUS
10
297.0712399999999889
20
-134.0715629999999976
11
296.8992000000000075
21
-133.9650399999999877
0
LINE
8
BLACK
6
CONTINUOUS
10
296.8992000000000075
20
-133.9650399999999877
11
296.7496629999999982
21
-133.8287190000000066
0
LINE
8
BLACK
6
CONTINUOUS
10
296.7496629999999982
20
-133.8287190000000066
11
296.6277220000000057
21
-133.6672419999999875
0
LINE
8
BLACK
6
CONTINUOUS
10
296.6277220000000057
20
-133.6672419999999875
11
296.5375270000000114
21
-133.4861080000000015
0
LINE
8
BLACK
6
CONTINUOUS
10
296.5375270000000114
20
-133.4861080000000015
11
296.482151999999985
21
-133.2914849999999944
0
LINE
8
BLACK
6
CONTINUOUS
10
296.482151999999985
20
-133.2914849999999944
11
296.4634819999999991
21
-133.0900000000000034
0
LINE
8
BLACK
6
CONTINUOUS
10
296.4634819999999991
20
-133.0900000000000034
11
296.482151999999985
21
-132.888514999999984
0
LINE
8
BLACK
6
CONTINUOUS
10
296.482151999999985
20
-132.888514999999984
11
296.5375270000000114
21
-132.6938920000000053
0
LINE
8
BLACK
6
CONTINUOUS
10
296.5375270000000114
20
-132.6938920000000053
11
296.6277220000000057
21
-132.5127579999999909
0
LINE
8
BLACK
6
CONTINUOUS
10
296.6277220000000057
20
-132.5127579999999909
11
296.7496629999999982
21
-132.3512810000000002
0
LINE
8
BLACK
6
CONTINUOUS
10
296.7496629999999982
20
-132.3512810000000002
11
296.8992000000000075
21
-132.2149599999999907
0
LINE
8
BLACK
6
CONTINUOUS
10
296.8992000000000075
20
-132.2149599999999907
11
297.0712399999999889
21
-132.1084369999999808
0
LINE
8
BLACK
6
CONTINUOUS
10
297.0712399999999889
20
-132.1084369999999808
11
297.2599240000000123
21
-132.0353409999999883
0
LINE
8
BLACK
6
CONTINUOUS
10
297.2599240000000123
20
-132.0353409999999883
11
297.4588259999999877
21
-131.9981599999999844
0
LINE
8
BLACK
6
CONTINUOUS
10
297.4588259999999877
20
-131.9981599999999844
11
297.66117399999996
21
-131.9981599999999844
0
LINE
8
BLACK
6
CONTINUOUS
10
297.66117399999996
20
-131.9981599999999844
11
297.8600759999999923
21
-132.0353409999999883
0
LINE
8
BLACK
6
CONTINUOUS
10
296.5778999999999996
20
-133.2853519999999889
11
296.6348820000000046
21
-133.4731960000000015
0
LINE
8
BLACK
6
CONTINUOUS
10
296.6348820000000046
20
-133.4731960000000015
11
296.7274160000000052
21
-133.6463149999999871
0
LINE
8
BLACK
6
CONTINUOUS
10
296.7274160000000052
20
-133.6463149999999871
11
296.8519459999999981
21
-133.7980540000000076
0
LINE
8
BLACK
6
CONTINUOUS
10
296.8519459999999981
20
-133.7980540000000076
11
297.0036849999999617
21
-133.9225840000000005
0
LINE
8
BLACK
6
CONTINUOUS
10
297.0036849999999617
20
-133.9225840000000005
11
297.1768040000000042
21
-134.0151180000000011
0
LINE
8
BLACK
6
CONTINUOUS
10
297.1768040000000042
20
-134.0151180000000011
11
297.3646479999999883
21
-134.072100000000006
0
LINE
8
BLACK
6
CONTINUOUS
10
297.3646479999999883
20
-134.072100000000006
11
297.5600000000000023
21
-134.0913400000000024
0
LINE
8
BLACK
6
CONTINUOUS
10
297.5600000000000023
20
-134.0913400000000024
11
297.7553519999999594
21
-134.072100000000006
0
LINE
8
BLACK
6
CONTINUOUS
10
297.7553519999999594
20
-134.072100000000006
11
297.9431960000000004
21
-134.0151180000000011
0
LINE
8
BLACK
6
CONTINUOUS
10
297.9431960000000004
20
-134.0151180000000011
11
298.116314999999986
21
-133.9225840000000005
0
LINE
8
BLACK
6
CONTINUOUS
10
298.116314999999986
20
-133.9225840000000005
11
298.2680540000000065
21
-133.7980540000000076
0
LINE
8
BLACK
6
CONTINUOUS
10
298.2680540000000065
20
-133.7980540000000076
11
298.3925839999999994
21
-133.6463149999999871
0
LINE
8
BLACK
6
CONTINUOUS
10
298.3925839999999994
20
-133.6463149999999871
11
298.4851179999999999
21
-133.4731960000000015
0
LINE
8
BLACK
6
CONTINUOUS
10
298.4851179999999999
20
-133.4731960000000015
11
298.5421000000000049
21
-133.2853519999999889
0
LINE
8
BLACK
6
CONTINUOUS
10
298.5421000000000049
20
-133.2853519999999889
11
298.5613399999999729
21
-133.0900000000000034
0
LINE
8
BLACK
6
CONTINUOUS
10
298.5613399999999729
20
-133.0900000000000034
11
298.5421000000000049
21
-132.8946479999999895
0
LINE
8
BLACK
6
CONTINUOUS
10
298.5421000000000049
20
-132.8946479999999895
11
298.4851179999999999
21
-132.7068040000000053
0
LINE
8
BLACK
6
CONTINUOUS
10
298.4851179999999999
20
-132.7068040000000053
11
298.3925839999999994
21
-132.5336849999999913
0
LINE
8
BLACK
6
CONTINUOUS
10
298.3925839999999994
20
-132.5336849999999913
11
298.2680540000000065
21
-132.3819459999999992
0
LINE
8
BLACK
6
CONTINUOUS
10
298.2680540000000065
20
-132.3819459999999992
11
298.116314999999986
21
-132.2574160000000063
0
LINE
8
BLACK
6
CONTINUOUS
10
298.116314999999986
20
-132.2574160000000063
11
297.9431960000000004
21
-132.1648820000000057
0
LINE
8
BLACK
6
CONTINUOUS
10
297.9431960000000004
20
-132.1648820000000057
11
297.7553519999999594
21
-132.1079000000000008
0
LINE
8
BLACK
6
CONTINUOUS
10
297.7553519999999594
20
-132.1079000000000008
11
297.5600000000000023
21
-132.0886600000000044
0
LINE
8
BLACK
6
CONTINUOUS
10
297.5600000000000023
20
-132.0886600000000044
11
297.3646479999999883
21
-132.1079000000000008
0
LINE
8
BLACK
6
CONTINUOUS
10
297.3646479999999883
20
-132.1079000000000008
11
297.1768040000000042
21
-132.1648820000000057
0
LINE
8
BLACK
6
CONTINUOUS
10
297.1768040000000042
20
-132.1648820000000057
11
297.0036849999999617
21
-132.2574160000000063
0
LINE
8
BLACK
6
CONTINUOUS
10
297.0036849999999617
20
-132.2574160000000063
11
296.8519459999999981
21
-132.3819459999999992
0
LINE
8
BLACK
6
CONTINUOUS
10
296.8519459999999981
20
-132.3819459999999992
11
296.7274160000000052
21
-132.5336849999999913
0
LINE
8
BLACK
6
CONTINUOUS
10
296.7274160000000052
20
-132.5336849999999913
11
296.6348820000000046
21
-132.7068040000000053
0
LINE
8
BLACK
6
CONTINUOUS
10
296.6348820000000046
20
-132.7068040000000053
11
296.5778999999999996
21
-132.8946479999999895
0
LINE
8
BLACK
6
CONTINUOUS
10
296.5778999999999996
20
-132.8946479999999895
11
296.5586599999999748
21
-133.0900000000000034
0
LINE
8
BLACK
6
CONTINUOUS
10
296.5586599999999748
20
-133.0900000000000034
11
296.5778999999999996
21
-133.2853519999999889
0
LINE
8
BLACK
6
CONTINUOUS
10
331.4200759999999946
20
-100.9953409999999963
11
331.6087599999999611
21
-101.0684369999999888
0
LINE
8
BLACK
6
CONTINUOUS
10
331.6087599999999611
20
-101.0684369999999888
11
331.7807999999999993
21
-101.1749599999999987
0
LINE
8
BLACK
6
CONTINUOUS
10
331.7807999999999993
20
-101.1749599999999987
11
331.9303370000000086
21
-101.3112809999999939
0
LINE
8
BLACK
6
CONTINUOUS
10
331.9303370000000086
20
-101.3112809999999939
11
332.0522780000000012
21
-101.4727579999999989
0
LINE
8
BLACK
6
CONTINUOUS
10
332.0522780000000012
20
-101.4727579999999989
11
332.1424729999999954
21
-101.653891999999999
0
LINE
8
BLACK
6
CONTINUOUS
10
332.1424729999999954
20
-101.653891999999999
11
332.1978479999999649
21
-101.8485149999999919
0
LINE
8
BLACK
6
CONTINUOUS
10
332.1978479999999649
20
-101.8485149999999919
11
332.2165180000000078
21
-102.0499999999999972
0
LINE
8
BLACK
6
CONTINUOUS
10
332.2165180000000078
20
-102.0499999999999972
11
332.1978479999999649
21
-102.2514850000000024
0
LINE
8
BLACK
6
CONTINUOUS
10
332.1978479999999649
20
-102.2514850000000024
11
332.1424729999999954
21
-102.4461079999999953
0
LINE
8
BLACK
6
CONTINUOUS
10
332.1424729999999954
20
-102.4461079999999953
11
332.0522780000000012
21
-102.6272419999999954
0
LINE
8
BLACK
6
CONTINUOUS
10
332.0522780000000012
20
-102.6272419999999954
11
331.9303370000000086
21
-102.7887190000000004
0
LINE
8
BLACK
6
CONTINUOUS
10
331.9303370000000086
20
-102.7887190000000004
11
331.7807999999999993
21
-102.9250399999999956
0
LINE
8
BLACK
6
CONTINUOUS
10
331.7807999999999993
20
-102.9250399999999956
11
331.6087599999999611
21
-103.0315629999999913
0
LINE
8
BLACK
6
CONTINUOUS
10
331.6087599999999611
20
-103.0315629999999913
11
331.4200759999999946
21
-103.1046589999999981
0
LINE
8
BLACK
6
CONTINUOUS
10
331.4200759999999946
20
-103.1046589999999981
11
331.2211739999999622
21
-103.141840000000002
0
LINE
8
BLACK
6
CONTINUOUS
10
331.2211739999999622
20
-103.141840000000002
11
331.01882599999999
21
-103.141840000000002
0
LINE
8
BLACK
6
CONTINUOUS
10
331.01882599999999
20
-103.141840000000002
11
330.8199239999999577
21
-103.1046589999999981
0
LINE
8
BLACK
6
CONTINUOUS
10
330.8199239999999577
20
-103.1046589999999981
11
330.6312399999999911
21
-103.0315629999999913
0
LINE
8
BLACK
6
CONTINUOUS
10
330.6312399999999911
20
-103.0315629999999913
11
330.4592000000000098
21
-102.9250399999999956
0
LINE
8
BLACK
6
CONTINUOUS
10
330.4592000000000098
20
-102.9250399999999956
11
330.3096630000000005
21
-102.7887190000000004
0
LINE
8
BLACK
6
CONTINUOUS
10
330.3096630000000005
20
-102.7887190000000004
11
330.1877220000000079
21
-102.6272419999999954
0
LINE
8
BLACK
6
CONTINUOUS
10
330.1877220000000079
20
-102.6272419999999954
11
330.0975269999999568
21
-102.4461079999999953
0
LINE
8
BLACK
6
CONTINUOUS
10
330.0975269999999568
20
-102.4461079999999953
11
330.0421519999999873
21
-102.2514850000000024
0
LINE
8
BLACK
6
CONTINUOUS
10
330.0421519999999873
20
-102.2514850000000024
11
330.0234820000000013
21
-102.0499999999999972
0
LINE
8
BLACK
6
CONTINUOUS
10
330.0234820000000013
20
-102.0499999999999972
11
330.0421519999999873
21
-101.8485149999999919
0
LINE
8
BLACK
6
CONTINUOUS
10
330.0421519999999873
20
-101.8485149999999919
11
330.0975269999999568
21
-101.653891999999999
0
LINE
8
BLACK
6
CONTINUOUS
10
330.0975269999999568
20
-101.653891999999999
11
330.1877220000000079
21
-101.4727579999999989
0
LINE
8
BLACK
6
CONTINUOUS
10
330.1877220000000079
20
-101.4727579999999989
11
330.3096630000000005
21
-101.3112809999999939
0
LINE
8
BLACK
6
CONTINUOUS
10
330.3096630000000005
20
-101.3112809999999939
11
330.4592000000000098
21
-101.1749599999999987
0
LINE
8
BLACK
6
CONTINUOUS
10
330.4592000000000098
20
-101.1749599999999987
11
330.6312399999999911
21
-101.0684369999999888
0
LINE
8
BLACK
6
CONTINUOUS
10
330.6312399999999911
20
-101.0684369999999888
11
330.8199239999999577
21
-100.9953409999999963
0
LINE
8
BLACK
6
CONTINUOUS
10
330.8199239999999577
20
-100.9953409999999963
11
331.01882599999999
21
-100.9581599999999924
0
LINE
8
BLACK
6
CONTINUOUS
10
331.01882599999999
20
-100.9581599999999924
11
331.2211739999999622
21
-100.9581599999999924
0
LINE
8
BLACK
6
CONTINUOUS
10
331.2211739999999622
20
-100.9581599999999924
11
331.4200759999999946
21
-100.9953409999999963
0
LINE
8
BLACK
6
CONTINUOUS
10
330.1379000000000019
20
-102.2453519999999969
11
330.1948820000000069
21
-102.4331959999999953
0
LINE
8
BLACK
6
CONTINUOUS
10
330.1948820000000069
20
-102.4331959999999953
11
330.2874160000000074
21
-102.6063149999999951
0
LINE
8
BLACK
6
CONTINUOUS
10
330.2874160000000074
20
-102.6063149999999951
11
330.4119460000000004
21
-102.7580540000000013
0
LINE
8
BLACK
6
CONTINUOUS
10
330.4119460000000004
20
-102.7580540000000013
11
330.563684999999964
21
-102.8825839999999943
0
LINE
8
BLACK
6
CONTINUOUS
10
330.563684999999964
20
-102.8825839999999943
11
330.7368040000000065
21
-102.9751179999999948
0
LINE
8
BLACK
6
CONTINUOUS
10
330.7368040000000065
20
-102.9751179999999948
11
330.9246479999999906
21
-103.0320999999999998
0
LINE
8
BLACK
6
CONTINUOUS
10
330.9246479999999906
20
-103.0320999999999998
11
331.1200000000000045
21
-103.0513399999999962
0
LINE
8
BLACK
6
CONTINUOUS
10
331.1200000000000045
20
-103.0513399999999962
11
331.3153519999999617
21
-103.0320999999999998
0
LINE
8
BLACK
6
CONTINUOUS
10
331.3153519999999617
20
-103.0320999999999998
11
331.5031960000000026
21
-102.9751179999999948
0
LINE
8
BLACK
6
CONTINUOUS
10
331.5031960000000026
20
-102.9751179999999948
11
331.6763149999999882
21
-102.8825839999999943
0
LINE
8
BLACK
6
CONTINUOUS
10
331.6763149999999882
20
-102.8825839999999943
11
331.8280540000000087
21
-102.7580540000000013
0
LINE
8
BLACK
6
CONTINUOUS
10
331.8280540000000087
20
-102.7580540000000013
11
331.9525840000000017
21
-102.6063149999999951
0
LINE
8
BLACK
6
CONTINUOUS
10
331.9525840000000017
20
-102.6063149999999951
11
332.0451180000000022
21
-102.4331959999999953
0
LINE
8
BLACK
6
CONTINUOUS
10
332.0451180000000022
20
-102.4331959999999953
11
332.1021000000000072
21
-102.2453519999999969
0
LINE
8
BLACK
6
CONTINUOUS
10
332.1021000000000072
20
-102.2453519999999969
11
332.1213399999999751
21
-102.0499999999999972
0
LINE
8
BLACK
6
CONTINUOUS
10
332.1213399999999751
20
-102.0499999999999972
11
332.1021000000000072
21
-101.8546479999999974
0
LINE
8
BLACK
6
CONTINUOUS
10
332.1021000000000072
20
-101.8546479999999974
11
332.0451180000000022
21
-101.6668039999999991
0
LINE
8
BLACK
6
CONTINUOUS
10
332.0451180000000022
20
-101.6668039999999991
11
331.9525840000000017
21
-101.4936849999999993
0
LINE
8
BLACK
6
CONTINUOUS
10
331.9525840000000017
20
-101.4936849999999993
11
331.8280540000000087
21
-101.341945999999993
0
LINE
8
BLACK
6
CONTINUOUS
10
331.8280540000000087
20
-101.341945999999993
11
331.6763149999999882
21
-101.2174160000000001
0
LINE
8
BLACK
6
CONTINUOUS
10
331.6763149999999882
20
-101.2174160000000001
11
331.5031960000000026
21
-101.1248819999999995
0
LINE
8
BLACK
6
CONTINUOUS
10
331.5031960000000026
20
-101.1248819999999995
11
331.3153519999999617
21
-101.0678999999999945
0
LINE
8
BLACK
6
CONTINUOUS
10
331.3153519999999617
20
-101.0678999999999945
11
331.1200000000000045
21
-101.0486599999999981
0
LINE
8
BLACK
6
CONTINUOUS
10
331.1200000000000045
20
-101.0486599999999981
11
330.9246479999999906
21
-101.0678999999999945
0
LINE
8
BLACK
6
CONTINUOUS
10
330.9246479999999906
20
-101.0678999999999945
11
330.7368040000000065
21
-101.1248819999999995
0
LINE
8
BLACK
6
CONTINUOUS
10
330.7368040000000065
20
-101.1248819999999995
11
330.563684999999964
21
-101.2174160000000001
0
LINE
8
BLACK
6
CONTINUOUS
10
330.563684999999964
20
-101.2174160000000001
11
330.4119460000000004
21
-101.341945999999993
0
LINE
8
BLACK
6
CONTINUOUS
10
330.4119460000000004
20
-101.341945999999993
11
330.2874160000000074
21
-101.4936849999999993
0
LINE
8
BLACK
6
CONTINUOUS
10
330.2874160000000074
20
-101.4936849999999993
11
330.1948820000000069
21
-101.6668039999999991
0
LINE
8
BLACK
6
CONTINUOUS
10
330.1948820000000069
20
-101.6668039999999991
11
330.1379000000000019
21
-101.8546479999999974
0
LINE
8
BLACK
6
CONTINUOUS
10
330.1379000000000019
20
-101.8546479999999974
11
330.1186599999999771
21
-102.0499999999999972
0
LINE
8
BLACK
6
CONTINUOUS
10
330.1186599999999771
20
-102.0499999999999972
11
330.1379000000000019
21
-102.2453519999999969
0
LINE
8
BLACK
6
CONTINUOUS
10
73.2900759999999991
20
-100.9753410000000002
11
73.4787599999999941
21
-101.0484369999999927
0
LINE
8
BLACK
6
CONTINUOUS
10
73.4787599999999941
20
-101.0484369999999927
11
73.6507999999999896
21
-101.1549599999999884
0
LINE
8
BLACK
6
CONTINUOUS
10
73.6507999999999896
20
-101.1549599999999884
11
73.800336999999999
21
-101.2912809999999979
0
LINE
8
BLACK
6
CONTINUOUS
10
73.800336999999999
20
-101.2912809999999979
11
73.9222779999999915
21
-101.4527579999999887
0
LINE
8
BLACK
6
CONTINUOUS
10
73.9222779999999915
20
-101.4527579999999887
11
74.012473
21
-101.6338919999999888
0
LINE
8
BLACK
6
CONTINUOUS
10
74.012473
20
-101.6338919999999888
11
74.0678479999999979
21
-101.8285149999999959
0
LINE
8
BLACK
6
CONTINUOUS
10
74.0678479999999979
20
-101.8285149999999959
11
74.0865179999999981
21
-102.0300000000000011
0
LINE
8
BLACK
6
CONTINUOUS
10
74.0865179999999981
20
-102.0300000000000011
11
74.0678479999999979
21
-102.2314849999999922
0
LINE
8
BLACK
6
CONTINUOUS
10
74.0678479999999979
20
-102.2314849999999922
11
74.012473
21
-102.4261079999999993
0
LINE
8
BLACK
6
CONTINUOUS
10
74.012473
20
-102.4261079999999993
11
73.9222779999999915
21
-102.6072419999999994
0
LINE
8
BLACK
6
CONTINUOUS
10
73.9222779999999915
20
-102.6072419999999994
11
73.800336999999999
21
-102.7687189999999902
0
LINE
8
BLACK
6
CONTINUOUS
10
73.800336999999999
20
-102.7687189999999902
11
73.6507999999999896
21
-102.9050399999999996
0
LINE
8
BLACK
6
CONTINUOUS
10
73.6507999999999896
20
-102.9050399999999996
11
73.4787599999999941
21
-103.0115629999999953
0
LINE
8
BLACK
6
CONTINUOUS
10
73.4787599999999941
20
-103.0115629999999953
11
73.2900759999999991
21
-103.084659000000002
0
LINE
8
BLACK
6
CONTINUOUS
10
73.2900759999999991
20
-103.084659000000002
11
73.0911739999999952
21
-103.1218399999999917
0
LINE
8
BLACK
6
CONTINUOUS
10
73.0911739999999952
20
-103.1218399999999917
11
72.8888259999999946
21
-103.1218399999999917
0
LINE
8
BLACK
6
CONTINUOUS
10
72.8888259999999946
20
-103.1218399999999917
11
72.6899239999999907
21
-103.084659000000002
0
LINE
8
BLACK
6
CONTINUOUS
10
72.6899239999999907
20
-103.084659000000002
11
72.5012399999999957
21
-103.0115629999999953
0
LINE
8
BLACK
6
CONTINUOUS
10
72.5012399999999957
20
-103.0115629999999953
11
72.3292000000000002
21
-102.9050399999999996
0
LINE
8
BLACK
6
CONTINUOUS
10
72.3292000000000002
20
-102.9050399999999996
11
72.1796629999999908
21
-102.7687189999999902
0
LINE
8
BLACK
6
CONTINUOUS
10
72.1796629999999908
20
-102.7687189999999902
11
72.0577219999999983
21
-102.6072419999999994
0
LINE
8
BLACK
6
CONTINUOUS
10
72.0577219999999983
20
-102.6072419999999994
11
71.9675269999999898
21
-102.4261079999999993
0
LINE
8
BLACK
6
CONTINUOUS
10
71.9675269999999898
20
-102.4261079999999993
11
71.9121519999999919
21
-102.2314849999999922
0
LINE
8
BLACK
6
CONTINUOUS
10
71.9121519999999919
20
-102.2314849999999922
11
71.8934819999999917
21
-102.0300000000000011
0
LINE
8
BLACK
6
CONTINUOUS
10
71.8934819999999917
20
-102.0300000000000011
11
71.9121519999999919
21
-101.8285149999999959
0
LINE
8
BLACK
6
CONTINUOUS
10
71.9121519999999919
20
-101.8285149999999959
11
71.9675269999999898
21
-101.6338919999999888
0
LINE
8
BLACK
6
CONTINUOUS
10
71.9675269999999898
20
-101.6338919999999888
11
72.0577219999999983
21
-101.4527579999999887
0
LINE
8
BLACK
6
CONTINUOUS
10
72.0577219999999983
20
-101.4527579999999887
11
72.1796629999999908
21
-101.2912809999999979
0
LINE
8
BLACK
6
CONTINUOUS
10
72.1796629999999908
20
-101.2912809999999979
11
72.3292000000000002
21
-101.1549599999999884
0
LINE
8
BLACK
6
CONTINUOUS
10
72.3292000000000002
20
-101.1549599999999884
11
72.5012399999999957
21
-101.0484369999999927
0
LINE
8
BLACK
6
CONTINUOUS
10
72.5012399999999957
20
-101.0484369999999927
11
72.6899239999999907
21
-100.9753410000000002
0
LINE
8
BLACK
6
CONTINUOUS
10
72.6899239999999907
20
-100.9753410000000002
11
72.8888259999999946
21
-100.9381599999999963
0
LINE
8
BLACK
6
CONTINUOUS
10
72.8888259999999946
20
-100.9381599999999963
11
73.0911739999999952
21
-100.9381599999999963
0
LINE
8
BLACK
6
CONTINUOUS
10
73.0911739999999952
20
-100.9381599999999963
11
73.2900759999999991
21
-100.9753410000000002
0
LINE
8
BLACK
6
CONTINUOUS
10
72.0078999999999922
20
-102.2253520000000009
11
72.0648819999999972
21
-102.4131959999999992
0
LINE
8
BLACK
6
CONTINUOUS
10
72.0648819999999972
20
-102.4131959999999992
11
72.1574159999999978
21
-102.586314999999999
0
LINE
8
BLACK
6
CONTINUOUS
10
72.1574159999999978
20
-102.586314999999999
11
72.2819459999999907
21
-102.7380539999999911
0
LINE
8
BLACK
6
CONTINUOUS
10
72.2819459999999907
20
-102.7380539999999911
11
72.433684999999997
21
-102.8625839999999982
0
LINE
8
BLACK
6
CONTINUOUS
10
72.433684999999997
20
-102.8625839999999982
11
72.6068039999999968
21
-102.9551179999999988
0
LINE
8
BLACK
6
CONTINUOUS
10
72.6068039999999968
20
-102.9551179999999988
11
72.7946479999999951
21
-103.0120999999999896
0
LINE
8
BLACK
6
CONTINUOUS
10
72.7946479999999951
20
-103.0120999999999896
11
72.9899999999999949
21
-103.0313400000000001
0
LINE
8
BLACK
6
CONTINUOUS
10
72.9899999999999949
20
-103.0313400000000001
11
73.1853519999999946
21
-103.0120999999999896
0
LINE
8
BLACK
6
CONTINUOUS
10
73.1853519999999946
20
-103.0120999999999896
11
73.373195999999993
21
-102.9551179999999988
0
LINE
8
BLACK
6
CONTINUOUS
10
73.373195999999993
20
-102.9551179999999988
11
73.5463149999999928
21
-102.8625839999999982
0
LINE
8
BLACK
6
CONTINUOUS
10
73.5463149999999928
20
-102.8625839999999982
11
73.6980539999999991
21
-102.7380539999999911
0
LINE
8
BLACK
6
CONTINUOUS
10
73.6980539999999991
20
-102.7380539999999911
11
73.822583999999992
21
-102.586314999999999
0
LINE
8
BLACK
6
CONTINUOUS
10
73.822583999999992
20
-102.586314999999999
11
73.9151179999999925
21
-102.4131959999999992
0
LINE
8
BLACK
6
CONTINUOUS
10
73.9151179999999925
20
-102.4131959999999992
11
73.9720999999999975
21
-102.2253520000000009
0
LINE
8
BLACK
6
CONTINUOUS
10
73.9720999999999975
20
-102.2253520000000009
11
73.9913399999999939
21
-102.0300000000000011
0
LINE
8
BLACK
6
CONTINUOUS
10
73.9913399999999939
20
-102.0300000000000011
11
73.9720999999999975
21
-101.8346480000000014
0
LINE
8
BLACK
6
CONTINUOUS
10
73.9720999999999975
20
-101.8346480000000014
11
73.9151179999999925
21
-101.6468039999999888
0
LINE
8
BLACK
6
CONTINUOUS
10
73.9151179999999925
20
-101.6468039999999888
11
73.822583999999992
21
-101.473684999999989
0
LINE
8
BLACK
6
CONTINUOUS
10
73.822583999999992
20
-101.473684999999989
11
73.6980539999999991
21
-101.321945999999997
0
LINE
8
BLACK
6
CONTINUOUS
10
73.6980539999999991
20
-101.321945999999997
11
73.5463149999999928
21
-101.1974159999999898
0
LINE
8
BLACK
6
CONTINUOUS
10
73.5463149999999928
20
-101.1974159999999898
11
73.373195999999993
21
-101.1048819999999893
0
LINE
8
BLACK
6
CONTINUOUS
10
73.373195999999993
20
-101.1048819999999893
11
73.1853519999999946
21
-101.0478999999999985
0
LINE
8
BLACK
6
CONTINUOUS
10
73.1853519999999946
20
-101.0478999999999985
11
72.9899999999999949
21
-101.0286600000000021
0
LINE
8
BLACK
6
CONTINUOUS
10
72.9899999999999949
20
-101.0286600000000021
11
72.7946479999999951
21
-101.0478999999999985
0
LINE
8
BLACK
6
CONTINUOUS
10
72.7946479999999951
20
-101.0478999999999985
11
72.6068039999999968
21
-101.1048819999999893
0
LINE
8
BLACK
6
CONTINUOUS
10
72.6068039999999968
20
-101.1048819999999893
11
72.433684999999997
21
-101.1974159999999898
0
LINE
8
BLACK
6
CONTINUOUS
10
72.433684999999997
20
-101.1974159999999898
11
72.2819459999999907
21
-101.321945999999997
0
LINE
8
BLACK
6
CONTINUOUS
10
72.2819459999999907
20
-101.321945999999997
11
72.1574159999999978
21
-101.473684999999989
0
LINE
8
BLACK
6
CONTINUOUS
10
72.1574159999999978
20
-101.473684999999989
11
72.0648819999999972
21
-101.6468039999999888
0
LINE
8
BLACK
6
CONTINUOUS
10
72.0648819999999972
20
-101.6468039999999888
11
72.0078999999999922
21
-101.8346480000000014
0
LINE
8
BLACK
6
CONTINUOUS
10
72.0078999999999922
20
-101.8346480000000014
11
71.9886599999999959
21
-102.0300000000000011
0
LINE
8
BLACK
6
CONTINUOUS
10
71.9886599999999959
20
-102.0300000000000011
11
72.0078999999999922
21
-102.2253520000000009
0
LINE
8
BLACK
6
CONTINUOUS
10
157.2300759999999968
20
-97.0153409999999923
11
157.4187599999999918
21
-97.088436999999999
0
LINE
8
BLACK
6
CONTINUOUS
10
157.4187599999999918
20
-97.088436999999999
11
157.5908000000000015
21
-97.1949599999999947
0
LINE
8
BLACK
6
CONTINUOUS
10
157.5908000000000015
20
-97.1949599999999947
11
157.7403369999999825
21
-97.3312809999999899
0
LINE
8
BLACK
6
CONTINUOUS
10
157.7403369999999825
20
-97.3312809999999899
11
157.8622780000000034
21
-97.4927579999999949
0
LINE
8
BLACK
6
CONTINUOUS
10
157.8622780000000034
20
-97.4927579999999949
11
157.9524729999999977
21
-97.6738919999999951
0
LINE
8
BLACK
6
CONTINUOUS
10
157.9524729999999977
20
-97.6738919999999951
11
158.0078479999999956
21
-97.8685150000000021
0
LINE
8
BLACK
6
CONTINUOUS
10
158.0078479999999956
20
-97.8685150000000021
11
158.0265179999999816
21
-98.0699999999999932
0
LINE
8
BLACK
6
CONTINUOUS
10
158.0265179999999816
20
-98.0699999999999932
11
158.0078479999999956
21
-98.2714849999999984
0
LINE
8
BLACK
6
CONTINUOUS
10
158.0078479999999956
20
-98.2714849999999984
11
157.9524729999999977
21
-98.4661079999999913
0
LINE
8
BLACK
6
CONTINUOUS
10
157.9524729999999977
20
-98.4661079999999913
11
157.8622780000000034
21
-98.6472419999999914
0
LINE
8
BLACK
6
CONTINUOUS
10
157.8622780000000034
20
-98.6472419999999914
11
157.7403369999999825
21
-98.8087189999999964
0
LINE
8
BLACK
6
CONTINUOUS
10
157.7403369999999825
20
-98.8087189999999964
11
157.5908000000000015
21
-98.9450399999999917
0
LINE
8
BLACK
6
CONTINUOUS
10
157.5908000000000015
20
-98.9450399999999917
11
157.4187599999999918
21
-99.0515630000000016
0
LINE
8
BLACK
6
CONTINUOUS
10
157.4187599999999918
20
-99.0515630000000016
11
157.2300759999999968
21
-99.1246589999999941
0
LINE
8
BLACK
6
CONTINUOUS
10
157.2300759999999968
20
-99.1246589999999941
11
157.0311739999999929
21
-99.161839999999998
0
LINE
8
BLACK
6
CONTINUOUS
10
157.0311739999999929
20
-99.161839999999998
11
156.8288259999999923
21
-99.161839999999998
0
LINE
8
BLACK
6
CONTINUOUS
10
156.8288259999999923
20
-99.161839999999998
11
156.6299239999999884
21
-99.1246589999999941
0
LINE
8
BLACK
6
CONTINUOUS
10
156.6299239999999884
20
-99.1246589999999941
11
156.4412399999999934
21
-99.0515630000000016
0
LINE
8
BLACK
6
CONTINUOUS
10
156.4412399999999934
20
-99.0515630000000016
11
156.2691999999999837
21
-98.9450399999999917
0
LINE
8
BLACK
6
CONTINUOUS
10
156.2691999999999837
20
-98.9450399999999917
11
156.1196630000000027
21
-98.8087189999999964
0
LINE
8
BLACK
6
CONTINUOUS
10
156.1196630000000027
20
-98.8087189999999964
11
155.9977219999999818
21
-98.6472419999999914
0
LINE
8
BLACK
6
CONTINUOUS
10
155.9977219999999818
20
-98.6472419999999914
11
155.9075269999999875
21
-98.4661079999999913
0
LINE
8
BLACK
6
CONTINUOUS
10
155.9075269999999875
20
-98.4661079999999913
11
155.8521519999999896
21
-98.2714849999999984
0
LINE
8
BLACK
6
CONTINUOUS
10
155.8521519999999896
20
-98.2714849999999984
11
155.8334820000000036
21
-98.0699999999999932
0
LINE
8
BLACK
6
CONTINUOUS
10
155.8334820000000036
20
-98.0699999999999932
11
155.8521519999999896
21
-97.8685150000000021
0
LINE
8
BLACK
6
CONTINUOUS
10
155.8521519999999896
20
-97.8685150000000021
11
155.9075269999999875
21
-97.6738919999999951
0
LINE
8
BLACK
6
CONTINUOUS
10
155.9075269999999875
20
-97.6738919999999951
11
155.9977219999999818
21
-97.4927579999999949
0
LINE
8
BLACK
6
CONTINUOUS
10
155.9977219999999818
20
-97.4927579999999949
11
156.1196630000000027
21
-97.3312809999999899
0
LINE
8
BLACK
6
CONTINUOUS
10
156.1196630000000027
20
-97.3312809999999899
11
156.2691999999999837
21
-97.1949599999999947
0
LINE
8
BLACK
6
CONTINUOUS
10
156.2691999999999837
20
-97.1949599999999947
11
156.4412399999999934
21
-97.088436999999999
0
LINE
8
BLACK
6
CONTINUOUS
10
156.4412399999999934
20
-97.088436999999999
11
156.6299239999999884
21
-97.0153409999999923
0
LINE
8
BLACK
6
CONTINUOUS
10
156.6299239999999884
20
-97.0153409999999923
11
156.8288259999999923
21
-96.9781600000000026
0
LINE
8
BLACK
6
CONTINUOUS
10
156.8288259999999923
20
-96.9781600000000026
11
157.0311739999999929
21
-96.9781600000000026
0
LINE
8
BLACK
6
CONTINUOUS
10
157.0311739999999929
20
-96.9781600000000026
11
157.2300759999999968
21
-97.0153409999999923
0
LINE
8
BLACK
6
CONTINUOUS
10
155.9479000000000042
20
-98.2653519999999929
11
156.0048819999999807
21
-98.4531959999999913
0
LINE
8
BLACK
6
CONTINUOUS
10
156.0048819999999807
20
-98.4531959999999913
11
156.0974159999999813
21
-98.6263149999999911
0
LINE
8
BLACK
6
CONTINUOUS
10
156.0974159999999813
20
-98.6263149999999911
11
156.2219460000000026
21
-98.7780539999999974
0
LINE
8
BLACK
6
CONTINUOUS
10
156.2219460000000026
20
-98.7780539999999974
11
156.3736849999999947
21
-98.9025839999999903
0
LINE
8
BLACK
6
CONTINUOUS
10
156.3736849999999947
20
-98.9025839999999903
11
156.5468039999999803
21
-98.9951179999999908
0
LINE
8
BLACK
6
CONTINUOUS
10
156.5468039999999803
20
-98.9951179999999908
11
156.7346479999999929
21
-99.0520999999999958
0
LINE
8
BLACK
6
CONTINUOUS
10
156.7346479999999929
20
-99.0520999999999958
11
156.9300000000000068
21
-99.0713399999999922
0
LINE
8
BLACK
6
CONTINUOUS
10
156.9300000000000068
20
-99.0713399999999922
11
157.1253519999999924
21
-99.0520999999999958
0
LINE
8
BLACK
6
CONTINUOUS
10
157.1253519999999924
20
-99.0520999999999958
11
157.3131960000000049
21
-98.9951179999999908
0
LINE
8
BLACK
6
CONTINUOUS
10
157.3131960000000049
20
-98.9951179999999908
11
157.4863149999999905
21
-98.9025839999999903
0
LINE
8
BLACK
6
CONTINUOUS
10
157.4863149999999905
20
-98.9025839999999903
11
157.6380539999999826
21
-98.7780539999999974
0
LINE
8
BLACK
6
CONTINUOUS
10
157.6380539999999826
20
-98.7780539999999974
11
157.7625840000000039
21
-98.6263149999999911
0
LINE
8
BLACK
6
CONTINUOUS
10
157.7625840000000039
20
-98.6263149999999911
11
157.8551180000000045
21
-98.4531959999999913
0
LINE
8
BLACK
6
CONTINUOUS
10
157.8551180000000045
20
-98.4531959999999913
11
157.912099999999981
21
-98.2653519999999929
0
LINE
8
BLACK
6
CONTINUOUS
10
157.912099999999981
20
-98.2653519999999929
11
157.9313400000000058
21
-98.0699999999999932
0
LINE
8
BLACK
6
CONTINUOUS
10
157.9313400000000058
20
-98.0699999999999932
11
157.912099999999981
21
-97.8746479999999934
0
LINE
8
BLACK
6
CONTINUOUS
10
157.912099999999981
20
-97.8746479999999934
11
157.8551180000000045
21
-97.6868039999999951
0
LINE
8
BLACK
6
CONTINUOUS
10
157.8551180000000045
20
-97.6868039999999951
11
157.7625840000000039
21
-97.5136849999999953
0
LINE
8
BLACK
6
CONTINUOUS
10
157.7625840000000039
20
-97.5136849999999953
11
157.6380539999999826
21
-97.361945999999989
0
LINE
8
BLACK
6
CONTINUOUS
10
157.6380539999999826
20
-97.361945999999989
11
157.4863149999999905
21
-97.2374159999999961
0
LINE
8
BLACK
6
CONTINUOUS
10
157.4863149999999905
20
-97.2374159999999961
11
157.3131960000000049
21
-97.1448819999999955
0
LINE
8
BLACK
6
CONTINUOUS
10
157.3131960000000049
20
-97.1448819999999955
11
157.1253519999999924
21
-97.0878999999999905
0
LINE
8
BLACK
6
CONTINUOUS
10
157.1253519999999924
20
-97.0878999999999905
11
156.9300000000000068
21
-97.0686599999999942
0
LINE
8
BLACK
6
CONTINUOUS
10
156.9300000000000068
20
-97.0686599999999942
11
156.7346479999999929
21
-97.0878999999999905
0
LINE
8
BLACK
6
CONTINUOUS
10
156.7346479999999929
20
-97.0878999999999905
11
156.5468039999999803
21
-97.1448819999999955
0
LINE
8
BLACK
6
CONTINUOUS
10
156.5468039999999803
20
-97.1448819999999955
11
156.3736849999999947
21
-97.2374159999999961
0
LINE
8
BLACK
6
CONTINUOUS
10
156.3736849999999947
20
-97.2374159999999961
11
156.2219460000000026
21
-97.361945999999989
0
LINE
8
BLACK
6
CONTINUOUS
10
156.2219460000000026
20
-97.361945999999989
11
156.0974159999999813
21
-97.5136849999999953
0
LINE
8
BLACK
6
CONTINUOUS
10
156.0974159999999813
20
-97.5136849999999953
11
156.0048819999999807
21
-97.6868039999999951
0
LINE
8
BLACK
6
CONTINUOUS
10
156.0048819999999807
20
-97.6868039999999951
11
155.9479000000000042
21
-97.8746479999999934
0
LINE
8
BLACK
6
CONTINUOUS
10
155.9479000000000042
20
-97.8746479999999934
11
155.9286599999999794
21
-98.0699999999999932
0
LINE
8
BLACK
6
CONTINUOUS
10
155.9286599999999794
20
-98.0699999999999932
11
155.9479000000000042
21
-98.2653519999999929
0
LINE
8
BLACK
6
CONTINUOUS
10
247.1800759999999855
20
-96.2153409999999951
11
247.3687599999999804
21
-96.2884370000000018
0
LINE
8
BLACK
6
CONTINUOUS
10
247.3687599999999804
20
-96.2884370000000018
11
247.5407999999999902
21
-96.3949599999999975
0
LINE
8
BLACK
6
CONTINUOUS
10
247.5407999999999902
20
-96.3949599999999975
11
247.6903369999999995
21
-96.5312809999999928
0
LINE
8
BLACK
6
CONTINUOUS
10
247.6903369999999995
20
-96.5312809999999928
11
247.8122779999999921
21
-96.6927579999999978
0
LINE
8
BLACK
6
CONTINUOUS
10
247.8122779999999921
20
-96.6927579999999978
11
247.9024729999999863
21
-96.8738919999999979
0
LINE
8
BLACK
6
CONTINUOUS
10
247.9024729999999863
20
-96.8738919999999979
11
247.9578479999999843
21
-97.0685149999999908
0
LINE
8
BLACK
6
CONTINUOUS
10
247.9578479999999843
20
-97.0685149999999908
11
247.9765179999999987
21
-97.269999999999996
0
LINE
8
BLACK
6
CONTINUOUS
10
247.9765179999999987
20
-97.269999999999996
11
247.9578479999999843
21
-97.4714850000000013
0
LINE
8
BLACK
6
CONTINUOUS
10
247.9578479999999843
20
-97.4714850000000013
11
247.9024729999999863
21
-97.6661079999999941
0
LINE
8
BLACK
6
CONTINUOUS
10
247.9024729999999863
20
-97.6661079999999941
11
247.8122779999999921
21
-97.8472419999999943
0
LINE
8
BLACK
6
CONTINUOUS
10
247.8122779999999921
20
-97.8472419999999943
11
247.6903369999999995
21
-98.0087189999999993
0
LINE
8
BLACK
6
CONTINUOUS
10
247.6903369999999995
20
-98.0087189999999993
11
247.5407999999999902
21
-98.1450399999999945
0
LINE
8
BLACK
6
CONTINUOUS
10
247.5407999999999902
20
-98.1450399999999945
11
247.3687599999999804
21
-98.2515629999999902
0
LINE
8
BLACK
6
CONTINUOUS
10
247.3687599999999804
20
-98.2515629999999902
11
247.1800759999999855
21
-98.3246589999999969
0
LINE
8
BLACK
6
CONTINUOUS
10
247.1800759999999855
20
-98.3246589999999969
11
246.9811739999999816
21
-98.3618400000000008
0
LINE
8
BLACK
6
CONTINUOUS
10
246.9811739999999816
20
-98.3618400000000008
11
246.7788259999999809
21
-98.3618400000000008
0
LINE
8
BLACK
6
CONTINUOUS
10
246.7788259999999809
20
-98.3618400000000008
11
246.579923999999977
21
-98.3246589999999969
0
LINE
8
BLACK
6
CONTINUOUS
10
246.579923999999977
20
-98.3246589999999969
11
246.391239999999982
21
-98.2515629999999902
0
LINE
8
BLACK
6
CONTINUOUS
10
246.391239999999982
20
-98.2515629999999902
11
246.2192000000000007
21
-98.1450399999999945
0
LINE
8
BLACK
6
CONTINUOUS
10
246.2192000000000007
20
-98.1450399999999945
11
246.0696629999999914
21
-98.0087189999999993
0
LINE
8
BLACK
6
CONTINUOUS
10
246.0696629999999914
20
-98.0087189999999993
11
245.9477219999999988
21
-97.8472419999999943
0
LINE
8
BLACK
6
CONTINUOUS
10
245.9477219999999988
20
-97.8472419999999943
11
245.8575269999999762
21
-97.6661079999999941
0
LINE
8
BLACK
6
CONTINUOUS
10
245.8575269999999762
20
-97.6661079999999941
11
245.8021519999999782
21
-97.4714850000000013
0
LINE
8
BLACK
6
CONTINUOUS
10
245.8021519999999782
20
-97.4714850000000013
11
245.7834819999999922
21
-97.269999999999996
0
LINE
8
BLACK
6
CONTINUOUS
10
245.7834819999999922
20
-97.269999999999996
11
245.8021519999999782
21
-97.0685149999999908
0
LINE
8
BLACK
6
CONTINUOUS
10
245.8021519999999782
20
-97.0685149999999908
11
245.8575269999999762
21
-96.8738919999999979
0
LINE
8
BLACK
6
CONTINUOUS
10
245.8575269999999762
20
-96.8738919999999979
11
245.9477219999999988
21
-96.6927579999999978
0
LINE
8
BLACK
6
CONTINUOUS
10
245.9477219999999988
20
-96.6927579999999978
11
246.0696629999999914
21
-96.5312809999999928
0
LINE
8
BLACK
6
CONTINUOUS
10
246.0696629999999914
20
-96.5312809999999928
11
246.2192000000000007
21
-96.3949599999999975
0
LINE
8
BLACK
6
CONTINUOUS
10
246.2192000000000007
20
-96.3949599999999975
11
246.391239999999982
21
-96.2884370000000018
0
LINE
8
BLACK
6
CONTINUOUS
10
246.391239999999982
20
-96.2884370000000018
11
246.579923999999977
21
-96.2153409999999951
0
LINE
8
BLACK
6
CONTINUOUS
10
246.579923999999977
20
-96.2153409999999951
11
246.7788259999999809
21
-96.1781599999999912
0
LINE
8
BLACK
6
CONTINUOUS
10
246.7788259999999809
20
-96.1781599999999912
11
246.9811739999999816
21
-96.1781599999999912
0
LINE
8
BLACK
6
CONTINUOUS
10
246.9811739999999816
20
-96.1781599999999912
11
247.1800759999999855
21
-96.2153409999999951
0
LINE
8
BLACK
6
CONTINUOUS
10
245.8978999999999928
20
-97.4653519999999958
11
245.9548819999999978
21
-97.6531959999999941
0
LINE
8
BLACK
6
CONTINUOUS
10
245.9548819999999978
20
-97.6531959999999941
11
246.0474159999999983
21
-97.8263149999999939
0
LINE
8
BLACK
6
CONTINUOUS
10
246.0474159999999983
20
-97.8263149999999939
11
246.1719459999999913
21
-97.9780540000000002
0
LINE
8
BLACK
6
CONTINUOUS
10
246.1719459999999913
20
-97.9780540000000002
11
246.3236849999999833
21
-98.1025839999999931
0
LINE
8
BLACK
6
CONTINUOUS
10
246.3236849999999833
20
-98.1025839999999931
11
246.4968039999999974
21
-98.1951179999999937
0
LINE
8
BLACK
6
CONTINUOUS
10
246.4968039999999974
20
-98.1951179999999937
11
246.6846479999999815
21
-98.2520999999999987
0
LINE
8
BLACK
6
CONTINUOUS
10
246.6846479999999815
20
-98.2520999999999987
11
246.8799999999999955
21
-98.271339999999995
0
LINE
8
BLACK
6
CONTINUOUS
10
246.8799999999999955
20
-98.271339999999995
11
247.075351999999981
21
-98.2520999999999987
0
LINE
8
BLACK
6
CONTINUOUS
10
247.075351999999981
20
-98.2520999999999987
11
247.2631959999999935
21
-98.1951179999999937
0
LINE
8
BLACK
6
CONTINUOUS
10
247.2631959999999935
20
-98.1951179999999937
11
247.4363149999999791
21
-98.1025839999999931
0
LINE
8
BLACK
6
CONTINUOUS
10
247.4363149999999791
20
-98.1025839999999931
11
247.5880539999999996
21
-97.9780540000000002
0
LINE
8
BLACK
6
CONTINUOUS
10
247.5880539999999996
20
-97.9780540000000002
11
247.7125839999999926
21
-97.8263149999999939
0
LINE
8
BLACK
6
CONTINUOUS
10
247.7125839999999926
20
-97.8263149999999939
11
247.8051179999999931
21
-97.6531959999999941
0
LINE
8
BLACK
6
CONTINUOUS
10
247.8051179999999931
20
-97.6531959999999941
11
247.8620999999999981
21
-97.4653519999999958
0
LINE
8
BLACK
6
CONTINUOUS
10
247.8620999999999981
20
-97.4653519999999958
11
247.8813399999999945
21
-97.269999999999996
0
LINE
8
BLACK
6
CONTINUOUS
10
247.8813399999999945
20
-97.269999999999996
11
247.8620999999999981
21
-97.0746479999999963
0
LINE
8
BLACK
6
CONTINUOUS
10
247.8620999999999981
20
-97.0746479999999963
11
247.8051179999999931
21
-96.8868039999999979
0
LINE
8
BLACK
6
CONTINUOUS
10
247.8051179999999931
20
-96.8868039999999979
11
247.7125839999999926
21
-96.7136849999999981
0
LINE
8
BLACK
6
CONTINUOUS
10
247.7125839999999926
20
-96.7136849999999981
11
247.5880539999999996
21
-96.5619459999999918
0
LINE
8
BLACK
6
CONTINUOUS
10
247.5880539999999996
20
-96.5619459999999918
11
247.4363149999999791
21
-96.4374159999999989
0
LINE
8
BLACK
6
CONTINUOUS
10
247.4363149999999791
20
-96.4374159999999989
11
247.2631959999999935
21
-96.3448819999999984
0
LINE
8
BLACK
6
CONTINUOUS
10
247.2631959999999935
20
-96.3448819999999984
11
247.075351999999981
21
-96.2878999999999934
0
LINE
8
BLACK
6
CONTINUOUS
10
247.075351999999981
20
-96.2878999999999934
11
246.8799999999999955
21
-96.268659999999997
0
LINE
8
BLACK
6
CONTINUOUS
10
246.8799999999999955
20
-96.268659999999997
11
246.6846479999999815
21
-96.2878999999999934
0
LINE
8
BLACK
6
CONTINUOUS
10
246.6846479999999815
20
-96.2878999999999934
11
246.4968039999999974
21
-96.3448819999999984
0
LINE
8
BLACK
6
CONTINUOUS
10
246.4968039999999974
20
-96.3448819999999984
11
246.3236849999999833
21
-96.4374159999999989
0
LINE
8
BLACK
6
CONTINUOUS
10
246.3236849999999833
20
-96.4374159999999989
11
246.1719459999999913
21
-96.5619459999999918
0
LINE
8
BLACK
6
CONTINUOUS
10
246.1719459999999913
20
-96.5619459999999918
11
246.0474159999999983
21
-96.7136849999999981
0
LINE
8
BLACK
6
CONTINUOUS
10
246.0474159999999983
20
-96.7136849999999981
11
245.9548819999999978
21
-96.8868039999999979
0
LINE
8
BLACK
6
CONTINUOUS
10
245.9548819999999978
20
-96.8868039999999979
11
245.8978999999999928
21
-97.0746479999999963
0
LINE
8
BLACK
6
CONTINUOUS
10
245.8978999999999928
20
-97.0746479999999963
11
245.8786599999999964
21
-97.269999999999996
0
LINE
8
BLACK
6
CONTINUOUS
10
245.8786599999999964
20
-97.269999999999996
11
245.8978999999999928
21
-97.4653519999999958
0
LINE
8
BLACK
6
CONTINUOUS
10
77.8900759999999934
20
-82.5553409999999985
11
78.0787600000000026
21
-82.628436999999991
0
LINE
8
BLACK
6
CONTINUOUS
10
78.0787600000000026
20
-82.628436999999991
11
78.2507999999999981
21
-82.7349600000000009
0
LINE
8
BLACK
6
CONTINUOUS
10
78.2507999999999981
20
-82.7349600000000009
11
78.4003369999999933
21
-82.8712809999999962
0
LINE
8
BLACK
6
CONTINUOUS
10
78.4003369999999933
20
-82.8712809999999962
11
78.522278
21
-83.0327580000000012
0
LINE
8
BLACK
6
CONTINUOUS
10
78.522278
20
-83.0327580000000012
11
78.6124729999999943
21
-83.2138920000000013
0
LINE
8
BLACK
6
CONTINUOUS
10
78.6124729999999943
20
-83.2138920000000013
11
78.6678479999999922
21
-83.4085149999999942
0
LINE
8
BLACK
6
CONTINUOUS
10
78.6678479999999922
20
-83.4085149999999942
11
78.6865179999999924
21
-83.6099999999999994
0
LINE
8
BLACK
6
CONTINUOUS
10
78.6865179999999924
20
-83.6099999999999994
11
78.6678479999999922
21
-83.8114849999999905
0
LINE
8
BLACK
6
CONTINUOUS
10
78.6678479999999922
20
-83.8114849999999905
11
78.6124729999999943
21
-84.0061079999999976
0
LINE
8
BLACK
6
CONTINUOUS
10
78.6124729999999943
20
-84.0061079999999976
11
78.522278
21
-84.1872419999999977
0
LINE
8
BLACK
6
CONTINUOUS
10
78.522278
20
-84.1872419999999977
11
78.4003369999999933
21
-84.3487190000000027
0
LINE
8
BLACK
6
CONTINUOUS
10
78.4003369999999933
20
-84.3487190000000027
11
78.2507999999999981
21
-84.4850399999999979
0
LINE
8
BLACK
6
CONTINUOUS
10
78.2507999999999981
20
-84.4850399999999979
11
78.0787600000000026
21
-84.5915629999999936
0
LINE
8
BLACK
6
CONTINUOUS
10
78.0787600000000026
20
-84.5915629999999936
11
77.8900759999999934
21
-84.6646590000000003
0
LINE
8
BLACK
6
CONTINUOUS
10
77.8900759999999934
20
-84.6646590000000003
11
77.6911739999999895
21
-84.70183999999999
0
LINE
8
BLACK
6
CONTINUOUS
10
77.6911739999999895
20
-84.70183999999999
11
77.4888260000000031
21
-84.70183999999999
0
LINE
8
BLACK
6
CONTINUOUS
10
77.4888260000000031
20
-84.70183999999999
11
77.2899239999999992
21
-84.6646590000000003
0
LINE
8
BLACK
6
CONTINUOUS
10
77.2899239999999992
20
-84.6646590000000003
11
77.10123999999999
21
-84.5915629999999936
0
LINE
8
BLACK
6
CONTINUOUS
10
77.10123999999999
20
-84.5915629999999936
11
76.9291999999999945
21
-84.4850399999999979
0
LINE
8
BLACK
6
CONTINUOUS
10
76.9291999999999945
20
-84.4850399999999979
11
76.7796629999999993
21
-84.3487190000000027
0
LINE
8
BLACK
6
CONTINUOUS
10
76.7796629999999993
20
-84.3487190000000027
11
76.6577219999999926
21
-84.1872419999999977
0
LINE
8
BLACK
6
CONTINUOUS
10
76.6577219999999926
20
-84.1872419999999977
11
76.5675269999999983
21
-84.0061079999999976
0
LINE
8
BLACK
6
CONTINUOUS
10
76.5675269999999983
20
-84.0061079999999976
11
76.5121520000000004
21
-83.8114849999999905
0
LINE
8
BLACK
6
CONTINUOUS
10
76.5121520000000004
20
-83.8114849999999905
11
76.4934820000000002
21
-83.6099999999999994
0
LINE
8
BLACK
6
CONTINUOUS
10
76.4934820000000002
20
-83.6099999999999994
11
76.5121520000000004
21
-83.4085149999999942
0
LINE
8
BLACK
6
CONTINUOUS
10
76.5121520000000004
20
-83.4085149999999942
11
76.5675269999999983
21
-83.2138920000000013
0
LINE
8
BLACK
6
CONTINUOUS
10
76.5675269999999983
20
-83.2138920000000013
11
76.6577219999999926
21
-83.0327580000000012
0
LINE
8
BLACK
6
CONTINUOUS
10
76.6577219999999926
20
-83.0327580000000012
11
76.7796629999999993
21
-82.8712809999999962
0
LINE
8
BLACK
6
CONTINUOUS
10
76.7796629999999993
20
-82.8712809999999962
11
76.9291999999999945
21
-82.7349600000000009
0
LINE
8
BLACK
6
CONTINUOUS
10
76.9291999999999945
20
-82.7349600000000009
11
77.10123999999999
21
-82.628436999999991
0
LINE
8
BLACK
6
CONTINUOUS
10
77.10123999999999
20
-82.628436999999991
11
77.2899239999999992
21
-82.5553409999999985
0
LINE
8
BLACK
6
CONTINUOUS
10
77.2899239999999992
20
-82.5553409999999985
11
77.4888260000000031
21
-82.5181599999999946
0
LINE
8
BLACK
6
CONTINUOUS
10
77.4888260000000031
20
-82.5181599999999946
11
77.6911739999999895
21
-82.5181599999999946
0
LINE
8
BLACK
6
CONTINUOUS
10
77.6911739999999895
20
-82.5181599999999946
11
77.8900759999999934
21
-82.5553409999999985
0
LINE
8
BLACK
6
CONTINUOUS
10
76.6079000000000008
20
-83.8053519999999992
11
76.6648819999999915
21
-83.9931959999999975
0
LINE
8
BLACK
6
CONTINUOUS
10
76.6648819999999915
20
-83.9931959999999975
11
76.7574159999999921
21
-84.1663149999999973
0
LINE
8
BLACK
6
CONTINUOUS
10
76.7574159999999921
20
-84.1663149999999973
11
76.8819459999999992
21
-84.3180539999999894
0
LINE
8
BLACK
6
CONTINUOUS
10
76.8819459999999992
20
-84.3180539999999894
11
77.0336849999999913
21
-84.4425839999999965
0
LINE
8
BLACK
6
CONTINUOUS
10
77.0336849999999913
20
-84.4425839999999965
11
77.2068039999999911
21
-84.5351179999999971
0
LINE
8
BLACK
6
CONTINUOUS
10
77.2068039999999911
20
-84.5351179999999971
11
77.3946479999999895
21
-84.5921000000000021
0
LINE
8
BLACK
6
CONTINUOUS
10
77.3946479999999895
20
-84.5921000000000021
11
77.5900000000000034
21
-84.6113399999999984
0
LINE
8
BLACK
6
CONTINUOUS
10
77.5900000000000034
20
-84.6113399999999984
11
77.7853520000000032
21
-84.5921000000000021
0
LINE
8
BLACK
6
CONTINUOUS
10
77.7853520000000032
20
-84.5921000000000021
11
77.9731960000000015
21
-84.5351179999999971
0
LINE
8
BLACK
6
CONTINUOUS
10
77.9731960000000015
20
-84.5351179999999971
11
78.1463150000000013
21
-84.4425839999999965
0
LINE
8
BLACK
6
CONTINUOUS
10
78.1463150000000013
20
-84.4425839999999965
11
78.2980539999999934
21
-84.3180539999999894
0
LINE
8
BLACK
6
CONTINUOUS
10
78.2980539999999934
20
-84.3180539999999894
11
78.4225840000000005
21
-84.1663149999999973
0
LINE
8
BLACK
6
CONTINUOUS
10
78.4225840000000005
20
-84.1663149999999973
11
78.5151180000000011
21
-83.9931959999999975
0
LINE
8
BLACK
6
CONTINUOUS
10
78.5151180000000011
20
-83.9931959999999975
11
78.5720999999999918
21
-83.8053519999999992
0
LINE
8
BLACK
6
CONTINUOUS
10
78.5720999999999918
20
-83.8053519999999992
11
78.5913400000000024
21
-83.6099999999999994
0
LINE
8
BLACK
6
CONTINUOUS
10
78.5913400000000024
20
-83.6099999999999994
11
78.5720999999999918
21
-83.4146479999999997
0
LINE
8
BLACK
6
CONTINUOUS
10
78.5720999999999918
20
-83.4146479999999997
11
78.5151180000000011
21
-83.2268040000000013
0
LINE
8
BLACK
6
CONTINUOUS
10
78.5151180000000011
20
-83.2268040000000013
11
78.4225840000000005
21
-83.0536850000000015
0
LINE
8
BLACK
6
CONTINUOUS
10
78.4225840000000005
20
-83.0536850000000015
11
78.2980539999999934
21
-82.9019459999999953
0
LINE
8
BLACK
6
CONTINUOUS
10
78.2980539999999934
20
-82.9019459999999953
11
78.1463150000000013
21
-82.7774160000000023
0
LINE
8
BLACK
6
CONTINUOUS
10
78.1463150000000013
20
-82.7774160000000023
11
77.9731960000000015
21
-82.6848820000000018
0
LINE
8
BLACK
6
CONTINUOUS
10
77.9731960000000015
20
-82.6848820000000018
11
77.7853520000000032
21
-82.6278999999999968
0
LINE
8
BLACK
6
CONTINUOUS
10
77.7853520000000032
20
-82.6278999999999968
11
77.5900000000000034
21
-82.6086600000000004
0
LINE
8
BLACK
6
CONTINUOUS
10
77.5900000000000034
20
-82.6086600000000004
11
77.3946479999999895
21
-82.6278999999999968
0
LINE
8
BLACK
6
CONTINUOUS
10
77.3946479999999895
20
-82.6278999999999968
11
77.2068039999999911
21
-82.6848820000000018
0
LINE
8
BLACK
6
CONTINUOUS
10
77.2068039999999911
20
-82.6848820000000018
11
77.0336849999999913
21
-82.7774160000000023
0
LINE
8
BLACK
6
CONTINUOUS
10
77.0336849999999913
20
-82.7774160000000023
11
76.8819459999999992
21
-82.9019459999999953
0
LINE
8
BLACK
6
CONTINUOUS
10
76.8819459999999992
20
-82.9019459999999953
11
76.7574159999999921
21
-83.0536850000000015
0
LINE
8
BLACK
6
CONTINUOUS
10
76.7574159999999921
20
-83.0536850000000015
11
76.6648819999999915
21
-83.2268040000000013
0
LINE
8
BLACK
6
CONTINUOUS
10
76.6648819999999915
20
-83.2268040000000013
11
76.6079000000000008
21
-83.4146479999999997
0
LINE
8
BLACK
6
CONTINUOUS
10
76.6079000000000008
20
-83.4146479999999997
11
76.5886599999999902
21
-83.6099999999999994
0
LINE
8
BLACK
6
CONTINUOUS
10
76.5886599999999902
20
-83.6099999999999994
11
76.6079000000000008
21
-83.8053519999999992
0
LINE
8
BLACK
6
CONTINUOUS
10
326.8200759999999718
20
-82.5553409999999985
11
327.0087599999999952
21
-82.628436999999991
0
LINE
8
BLACK
6
CONTINUOUS
10
327.0087599999999952
20
-82.628436999999991
11
327.1807999999999765
21
-82.7349600000000009
0
LINE
8
BLACK
6
CONTINUOUS
10
327.1807999999999765
20
-82.7349600000000009
11
327.3303369999999859
21
-82.8712809999999962
0
LINE
8
BLACK
6
CONTINUOUS
10
327.3303369999999859
20
-82.8712809999999962
11
327.4522779999999784
21
-83.0327580000000012
0
LINE
8
BLACK
6
CONTINUOUS
10
327.4522779999999784
20
-83.0327580000000012
11
327.5424729999999727
21
-83.2138920000000013
0
LINE
8
BLACK
6
CONTINUOUS
10
327.5424729999999727
20
-83.2138920000000013
11
327.597847999999999
21
-83.4085149999999942
0
LINE
8
BLACK
6
CONTINUOUS
10
327.597847999999999
20
-83.4085149999999942
11
327.616517999999985
21
-83.6099999999999994
0
LINE
8
BLACK
6
CONTINUOUS
10
327.616517999999985
20
-83.6099999999999994
11
327.597847999999999
21
-83.8114849999999905
0
LINE
8
BLACK
6
CONTINUOUS
10
327.597847999999999
20
-83.8114849999999905
11
327.5424729999999727
21
-84.0061079999999976
0
LINE
8
BLACK
6
CONTINUOUS
10
327.5424729999999727
20
-84.0061079999999976
11
327.4522779999999784
21
-84.1872419999999977
0
LINE
8
BLACK
6
CONTINUOUS
10
327.4522779999999784
20
-84.1872419999999977
11
327.3303369999999859
21
-84.3487190000000027
0
LINE
8
BLACK
6
CONTINUOUS
10
327.3303369999999859
20
-84.3487190000000027
11
327.1807999999999765
21
-84.4850399999999979
0
LINE
8
BLACK
6
CONTINUOUS
10
327.1807999999999765
20
-84.4850399999999979
11
327.0087599999999952
21
-84.5915629999999936
0
LINE
8
BLACK
6
CONTINUOUS
10
327.0087599999999952
20
-84.5915629999999936
11
326.8200759999999718
21
-84.6646590000000003
0
LINE
8
BLACK
6
CONTINUOUS
10
326.8200759999999718
20
-84.6646590000000003
11
326.6211739999999963
21
-84.70183999999999
0
LINE
8
BLACK
6
CONTINUOUS
10
326.6211739999999963
20
-84.70183999999999
11
326.4188259999999673
21
-84.70183999999999
0
LINE
8
BLACK
6
CONTINUOUS
10
326.4188259999999673
20
-84.70183999999999
11
326.2199239999999918
21
-84.6646590000000003
0
LINE
8
BLACK
6
CONTINUOUS
10
326.2199239999999918
20
-84.6646590000000003
11
326.0312399999999684
21
-84.5915629999999936
0
LINE
8
BLACK
6
CONTINUOUS
10
326.0312399999999684
20
-84.5915629999999936
11
325.8591999999999871
21
-84.4850399999999979
0
LINE
8
BLACK
6
CONTINUOUS
10
325.8591999999999871
20
-84.4850399999999979
11
325.7096629999999777
21
-84.3487190000000027
0
LINE
8
BLACK
6
CONTINUOUS
10
325.7096629999999777
20
-84.3487190000000027
11
325.5877219999999852
21
-84.1872419999999977
0
LINE
8
BLACK
6
CONTINUOUS
10
325.5877219999999852
20
-84.1872419999999977
11
325.4975269999999909
21
-84.0061079999999976
0
LINE
8
BLACK
6
CONTINUOUS
10
325.4975269999999909
20
-84.0061079999999976
11
325.4421519999999646
21
-83.8114849999999905
0
LINE
8
BLACK
6
CONTINUOUS
10
325.4421519999999646
20
-83.8114849999999905
11
325.4234819999999786
21
-83.6099999999999994
0
LINE
8
BLACK
6
CONTINUOUS
10
325.4234819999999786
20
-83.6099999999999994
11
325.4421519999999646
21
-83.4085149999999942
0
LINE
8
BLACK
6
CONTINUOUS
10
325.4421519999999646
20
-83.4085149999999942
11
325.4975269999999909
21
-83.2138920000000013
0
LINE
8
BLACK
6
CONTINUOUS
10
325.4975269999999909
20
-83.2138920000000013
11
325.5877219999999852
21
-83.0327580000000012
0
LINE
8
BLACK
6
CONTINUOUS
10
325.5877219999999852
20
-83.0327580000000012
11
325.7096629999999777
21
-82.8712809999999962
0
LINE
8
BLACK
6
CONTINUOUS
10
325.7096629999999777
20
-82.8712809999999962
11
325.8591999999999871
21
-82.7349600000000009
0
LINE
8
BLACK
6
CONTINUOUS
10
325.8591999999999871
20
-82.7349600000000009
11
326.0312399999999684
21
-82.628436999999991
0
LINE
8
BLACK
6
CONTINUOUS
10
326.0312399999999684
20
-82.628436999999991
11
326.2199239999999918
21
-82.5553409999999985
0
LINE
8
BLACK
6
CONTINUOUS
10
326.2199239999999918
20
-82.5553409999999985
11
326.4188259999999673
21
-82.5181599999999946
0
LINE
8
BLACK
6
CONTINUOUS
10
326.4188259999999673
20
-82.5181599999999946
11
326.6211739999999963
21
-82.5181599999999946
0
LINE
8
BLACK
6
CONTINUOUS
10
326.6211739999999963
20
-82.5181599999999946
11
326.8200759999999718
21
-82.5553409999999985
0
LINE
8
BLACK
6
CONTINUOUS
10
325.5378999999999792
20
-83.8053519999999992
11
325.5948819999999841
21
-83.9931959999999975
0
LINE
8
BLACK
6
CONTINUOUS
10
325.5948819999999841
20
-83.9931959999999975
11
325.6874159999999847
21
-84.1663149999999973
0
LINE
8
BLACK
6
CONTINUOUS
10
325.6874159999999847
20
-84.1663149999999973
11
325.8119459999999776
21
-84.3180539999999894
0
LINE
8
BLACK
6
CONTINUOUS
10
325.8119459999999776
20
-84.3180539999999894
11
325.9636849999999981
21
-84.4425839999999965
0
LINE
8
BLACK
6
CONTINUOUS
10
325.9636849999999981
20
-84.4425839999999965
11
326.1368039999999837
21
-84.5351179999999971
0
LINE
8
BLACK
6
CONTINUOUS
10
326.1368039999999837
20
-84.5351179999999971
11
326.3246479999999679
21
-84.5921000000000021
0
LINE
8
BLACK
6
CONTINUOUS
10
326.3246479999999679
20
-84.5921000000000021
11
326.5199999999999818
21
-84.6113399999999984
0
LINE
8
BLACK
6
CONTINUOUS
10
326.5199999999999818
20
-84.6113399999999984
11
326.7153519999999958
21
-84.5921000000000021
0
LINE
8
BLACK
6
CONTINUOUS
10
326.7153519999999958
20
-84.5921000000000021
11
326.9031959999999799
21
-84.5351179999999971
0
LINE
8
BLACK
6
CONTINUOUS
10
326.9031959999999799
20
-84.5351179999999971
11
327.0763149999999655
21
-84.4425839999999965
0
LINE
8
BLACK
6
CONTINUOUS
10
327.0763149999999655
20
-84.4425839999999965
11
327.228053999999986
21
-84.3180539999999894
0
LINE
8
BLACK
6
CONTINUOUS
10
327.228053999999986
20
-84.3180539999999894
11
327.3525839999999789
21
-84.1663149999999973
0
LINE
8
BLACK
6
CONTINUOUS
10
327.3525839999999789
20
-84.1663149999999973
11
327.4451179999999795
21
-83.9931959999999975
0
LINE
8
BLACK
6
CONTINUOUS
10
327.4451179999999795
20
-83.9931959999999975
11
327.5020999999999844
21
-83.8053519999999992
0
LINE
8
BLACK
6
CONTINUOUS
10
327.5020999999999844
20
-83.8053519999999992
11
327.5213400000000092
21
-83.6099999999999994
0
LINE
8
BLACK
6
CONTINUOUS
10
327.5213400000000092
20
-83.6099999999999994
11
327.5020999999999844
21
-83.4146479999999997
0
LINE
8
BLACK
6
CONTINUOUS
10
327.5020999999999844
20
-83.4146479999999997
11
327.4451179999999795
21
-83.2268040000000013
0
LINE
8
BLACK
6
CONTINUOUS
10
327.4451179999999795
20
-83.2268040000000013
11
327.3525839999999789
21
-83.0536850000000015
0
LINE
8
BLACK
6
CONTINUOUS
10
327.3525839999999789
20
-83.0536850000000015
11
327.228053999999986
21
-82.9019459999999953
0
LINE
8
BLACK
6
CONTINUOUS
10
327.228053999999986
20
-82.9019459999999953
11
327.0763149999999655
21
-82.7774160000000023
0
LINE
8
BLACK
6
CONTINUOUS
10
327.0763149999999655
20
-82.7774160000000023
11
326.9031959999999799
21
-82.6848820000000018
0
LINE
8
BLACK
6
CONTINUOUS
10
326.9031959999999799
20
-82.6848820000000018
11
326.7153519999999958
21
-82.6278999999999968
0
LINE
8
BLACK
6
CONTINUOUS
10
326.7153519999999958
20
-82.6278999999999968
11
326.5199999999999818
21
-82.6086600000000004
0
LINE
8
BLACK
6
CONTINUOUS
10
326.5199999999999818
20
-82.6086600000000004
11
326.3246479999999679
21
-82.6278999999999968
0
LINE
8
BLACK
6
CONTINUOUS
10
326.3246479999999679
20
-82.6278999999999968
11
326.1368039999999837
21
-82.6848820000000018
0
LINE
8
BLACK
6
CONTINUOUS
10
326.1368039999999837
20
-82.6848820000000018
11
325.9636849999999981
21
-82.7774160000000023
0
LINE
8
BLACK
6
CONTINUOUS
10
325.9636849999999981
20
-82.7774160000000023
11
325.8119459999999776
21
-82.9019459999999953
0
LINE
8
BLACK
6
CONTINUOUS
10
325.8119459999999776
20
-82.9019459999999953
11
325.6874159999999847
21
-83.0536850000000015
0
LINE
8
BLACK
6
CONTINUOUS
10
325.6874159999999847
20
-83.0536850000000015
11
325.5948819999999841
21
-83.2268040000000013
0
LINE
8
BLACK
6
CONTINUOUS
10
325.5948819999999841
20
-83.2268040000000013
11
325.5378999999999792
21
-83.4146479999999997
0
LINE
8
BLACK
6
CONTINUOUS
10
325.5378999999999792
20
-83.4146479999999997
11
325.5186600000000112
21
-83.6099999999999994
0
LINE
8
BLACK
6
CONTINUOUS
10
325.5186600000000112
20
-83.6099999999999994
11
325.5378999999999792
21
-83.8053519999999992
0
LINE
8
BLACK
6
CONTINUOUS
10
63.7380209999999963
20
-60.5172259999999937
11
100.5839349999999968
21
-69.7039410000000004
0
LINE
8
BLACK
6
CONTINUOUS
10
100.5839349999999968
20
-69.7039410000000004
11
109.6212919999999968
21
-62.110209999999995
0
LINE
8
BLACK
6
CONTINUOUS
10
109.6212919999999968
20
-62.110209999999995
11
109.628075999999993
21
-62.1080649999999963
0
LINE
8
BLACK
6
CONTINUOUS
10
109.628075999999993
20
-62.1080649999999963
11
109.6329750000000018
21
-62.1029039999999952
0
LINE
8
BLACK
6
CONTINUOUS
10
109.6329750000000018
20
-62.1029039999999952
11
109.6454419999999885
21
-62.1025769999999966
0
LINE
8
BLACK
6
CONTINUOUS
10
109.6454419999999885
20
-62.1025769999999966
11
109.6573339999999916
21
-62.0988189999999989
0
LINE
8
BLACK
6
CONTINUOUS
10
109.6573339999999916
20
-62.0988189999999989
11
109.6636469999999974
21
-62.1021000000000001
0
LINE
8
BLACK
6
CONTINUOUS
10
109.6636469999999974
20
-62.1021000000000001
11
109.6707619999999963
21
-62.1019140000000007
0
LINE
8
BLACK
6
CONTINUOUS
10
109.6707619999999963
20
-62.1019140000000007
11
127.3622340000000008
21
-68.8930079999999947
0
LINE
8
BLACK
6
CONTINUOUS
10
127.3622340000000008
20
-68.8930079999999947
11
129.8530680000000075
21
-62.4044249999999963
0
LINE
8
BLACK
6
CONTINUOUS
10
129.8530680000000075
20
-62.4044249999999963
11
129.8530680000000075
21
-62.4044239999999988
0
LINE
8
BLACK
6
CONTINUOUS
10
129.8530680000000075
20
-62.4044239999999988
11
129.8790869999999984
21
-62.3770059999999944
0
LINE
8
BLACK
6
CONTINUOUS
10
129.8790869999999984
20
-62.3770059999999944
11
129.8790869999999984
21
-62.3770049999999969
0
LINE
8
BLACK
6
CONTINUOUS
10
129.8790869999999984
20
-62.3770049999999969
11
129.8790879999999959
21
-62.3770049999999969
0
LINE
8
BLACK
6
CONTINUOUS
10
129.8790879999999959
20
-62.3770049999999969
11
129.9168740000000071
21
-62.3760159999999999
0
LINE
8
BLACK
6
CONTINUOUS
10
129.9168740000000071
20
-62.3760159999999999
11
147.6544449999999813
21
-69.1848119999999938
0
LINE
8
BLACK
6
CONTINUOUS
10
147.6544449999999813
20
-69.1848119999999938
11
147.6544460000000072
21
-69.1848119999999938
0
LINE
8
BLACK
6
CONTINUOUS
10
147.6544460000000072
20
-69.1848119999999938
11
147.6818649999999877
21
-69.2108319999999964
0
LINE
8
BLACK
6
CONTINUOUS
10
147.6818649999999877
20
-69.2108319999999964
11
147.6828539999999919
21
-69.2486179999999933
0
LINE
8
BLACK
6
CONTINUOUS
10
147.6828539999999919
20
-69.2486179999999933
11
145.1920189999999877
21
-75.7371979999999922
0
LINE
8
BLACK
6
CONTINUOUS
10
145.1920189999999877
20
-75.7371979999999922
11
162.8834860000000049
21
-82.5282940000000025
0
LINE
8
BLACK
6
CONTINUOUS
10
162.8834860000000049
20
-82.5282940000000025
11
162.8834870000000024
21
-82.528295
0
LINE
8
BLACK
6
CONTINUOUS
10
162.8834870000000024
20
-82.528295
11
162.8834879999999998
21
-82.528295
0
LINE
8
BLACK
6
CONTINUOUS
10
162.8834879999999998
20
-82.528295
11
162.8961199999999963
21
-82.5402830000000023
0
LINE
8
BLACK
6
CONTINUOUS
10
162.8961199999999963
20
-82.5402830000000023
11
162.9109049999999854
21
-82.5543139999999909
0
LINE
8
BLACK
6
CONTINUOUS
10
162.9109049999999854
20
-82.5543139999999909
11
162.9109049999999854
21
-82.5543150000000026
0
LINE
8
BLACK
6
CONTINUOUS
10
162.9109049999999854
20
-82.5543150000000026
11
162.9109059999999829
21
-82.554316
0
LINE
8
BLACK
6
CONTINUOUS
10
162.9109059999999829
20
-82.554316
11
162.9113729999999975
21
-82.5722200000000015
0
LINE
8
BLACK
6
CONTINUOUS
10
162.9113729999999975
20
-82.5722200000000015
11
162.9118939999999895
21
-82.5921000000000021
0
LINE
8
BLACK
6
CONTINUOUS
10
162.9118939999999895
20
-82.5921000000000021
11
162.9118919999999946
21
-82.5921009999999995
0
LINE
8
BLACK
6
CONTINUOUS
10
162.9118919999999946
20
-82.5921009999999995
11
162.9118929999999921
21
-82.592101999999997
0
LINE
8
BLACK
6
CONTINUOUS
10
162.9118929999999921
20
-82.592101999999997
11
161.8543540000000007
21
-85.346628999999993
0
LINE
8
BLACK
6
CONTINUOUS
10
161.8543540000000007
20
-85.346628999999993
11
179.5356769999999926
21
-92.1341800000000006
0
LINE
8
BLACK
6
CONTINUOUS
10
179.5356769999999926
20
-92.1341800000000006
11
183.5669809999999984
21
-92.1341819999999956
0
LINE
8
BLACK
6
CONTINUOUS
10
183.5669809999999984
20
-92.1341819999999956
11
193.7832889999999963
21
-74.4390199999999993
0
LINE
8
BLACK
6
CONTINUOUS
10
193.7832889999999963
20
-74.4390199999999993
11
193.8136489999999981
21
-74.4157239999999973
0
LINE
8
BLACK
6
CONTINUOUS
10
193.8136489999999981
20
-74.4157239999999973
11
193.8515899999999874
21
-74.4207189999999912
0
LINE
8
BLACK
6
CONTINUOUS
10
193.8515899999999874
20
-74.4207189999999912
11
224.5259709999999984
21
-92.1305799999999948
0
LINE
8
BLACK
6
CONTINUOUS
10
224.5259709999999984
20
-92.1305799999999948
11
242.1979129999999998
21
-85.3466279999999955
0
LINE
8
BLACK
6
CONTINUOUS
10
242.1979129999999998
20
-85.3466279999999955
11
241.1403849999999807
21
-82.592101999999997
0
LINE
8
BLACK
6
CONTINUOUS
10
241.1403849999999807
20
-82.592101999999997
11
241.1403849999999807
21
-82.5921009999999995
0
LINE
8
BLACK
6
CONTINUOUS
10
241.1403849999999807
20
-82.5921009999999995
11
241.1403839999999832
21
-82.5921000000000021
0
LINE
8
BLACK
6
CONTINUOUS
10
241.1403839999999832
20
-82.5921000000000021
11
241.1413110000000017
21
-82.5566989999999947
0
LINE
8
BLACK
6
CONTINUOUS
10
241.1413110000000017
20
-82.5566989999999947
11
241.1413729999999873
21
-82.554316
0
LINE
8
BLACK
6
CONTINUOUS
10
241.1413729999999873
20
-82.554316
11
241.1413729999999873
21
-82.5543150000000026
0
LINE
8
BLACK
6
CONTINUOUS
10
241.1413729999999873
20
-82.5543150000000026
11
241.1413739999999848
21
-82.5543129999999934
0
LINE
8
BLACK
6
CONTINUOUS
10
241.1413739999999848
20
-82.5543129999999934
11
241.1604409999999916
21
-82.536217999999991
0
LINE
8
BLACK
6
CONTINUOUS
10
241.1604409999999916
20
-82.536217999999991
11
241.1687900000000013
21
-82.528295
0
LINE
8
BLACK
6
CONTINUOUS
10
241.1687900000000013
20
-82.528295
11
241.1687919999999963
21
-82.5282940000000025
0
LINE
8
BLACK
6
CONTINUOUS
10
241.1687919999999963
20
-82.5282940000000025
11
258.860258999999985
21
-75.7371949999999998
0
LINE
8
BLACK
6
CONTINUOUS
10
258.860258999999985
20
-75.7371949999999998
11
256.3694160000000011
21
-69.2486189999999908
0
LINE
8
BLACK
6
CONTINUOUS
10
256.3694160000000011
20
-69.2486189999999908
11
256.3694150000000036
21
-69.2486179999999933
0
LINE
8
BLACK
6
CONTINUOUS
10
256.3694150000000036
20
-69.2486179999999933
11
256.3703419999999937
21
-69.2132189999999952
0
LINE
8
BLACK
6
CONTINUOUS
10
256.3703419999999937
20
-69.2132189999999952
11
256.3704040000000077
21
-69.2108319999999964
0
LINE
8
BLACK
6
CONTINUOUS
10
256.3704040000000077
20
-69.2108319999999964
11
256.3704050000000052
21
-69.2108309999999989
0
LINE
8
BLACK
6
CONTINUOUS
10
256.3704050000000052
20
-69.2108309999999989
11
256.3978230000000167
21
-69.1848119999999938
0
LINE
8
BLACK
6
CONTINUOUS
10
256.3978230000000167
20
-69.1848119999999938
11
274.1353970000000118
21
-62.3760139999999978
0
LINE
8
BLACK
6
CONTINUOUS
10
274.1353970000000118
20
-62.3760139999999978
11
274.1545399999999972
21
-62.3765149999999977
0
LINE
8
BLACK
6
CONTINUOUS
10
274.1545399999999972
20
-62.3765149999999977
11
274.1731829999999945
21
-62.3770029999999949
0
LINE
8
BLACK
6
CONTINUOUS
10
274.1731829999999945
20
-62.3770029999999949
11
274.173183999999992
21
-62.3770039999999995
0
LINE
8
BLACK
6
CONTINUOUS
10
274.173183999999992
20
-62.3770039999999995
11
274.1992030000000113
21
-62.4044219999999967
0
LINE
8
BLACK
6
CONTINUOUS
10
274.1992030000000113
20
-62.4044219999999967
11
274.1992020000000139
21
-62.4044239999999988
0
LINE
8
BLACK
6
CONTINUOUS
10
274.1992020000000139
20
-62.4044239999999988
11
276.6900430000000028
21
-68.8930110000000013
0
LINE
8
BLACK
6
CONTINUOUS
10
276.6900430000000028
20
-68.8930110000000013
11
294.3815119999999865
21
-62.1019140000000007
0
LINE
8
BLACK
6
CONTINUOUS
10
294.3815119999999865
20
-62.1019140000000007
11
294.3886259999999879
21
-62.1021000000000001
0
LINE
8
BLACK
6
CONTINUOUS
10
294.3886259999999879
20
-62.1021000000000001
11
294.3949399999999628
21
-62.0988189999999989
0
LINE
8
BLACK
6
CONTINUOUS
10
294.3949399999999628
20
-62.0988189999999989
11
294.406831000000011
21
-62.1025769999999966
0
LINE
8
BLACK
6
CONTINUOUS
10
294.406831000000011
20
-62.1025769999999966
11
294.4192979999999693
21
-62.1029039999999952
0
LINE
8
BLACK
6
CONTINUOUS
10
294.4192979999999693
20
-62.1029039999999952
11
294.4241959999999949
21
-62.1080649999999963
0
LINE
8
BLACK
6
CONTINUOUS
10
294.4241959999999949
20
-62.1080649999999963
11
294.4309819999999718
21
-62.110209999999995
0
LINE
8
BLACK
6
CONTINUOUS
10
294.4309819999999718
20
-62.110209999999995
11
303.4683390000000145
21
-69.7039410000000004
0
LINE
8
BLACK
6
CONTINUOUS
10
303.4683390000000145
20
-69.7039410000000004
11
340.3142569999999978
21
-60.5172269999999983
0
LINE
8
BLACK
6
CONTINUOUS
10
340.3142569999999978
20
-60.5172269999999983
11
340.3516409999999723
21
-60.5228139999999968
0
LINE
8
BLACK
6
CONTINUOUS
10
340.3516409999999723
20
-60.5228139999999968
11
340.3741249999999923
21
-60.5531989999999993
0
LINE
8
BLACK
6
CONTINUOUS
10
340.3741249999999923
20
-60.5531989999999993
11
354.1631469999999808
21
-115.8589059999999904
0
LINE
8
BLACK
6
CONTINUOUS
10
354.1631469999999808
20
-115.8589059999999904
11
354.1575599999999895
21
-115.8962899999999934
0
LINE
8
BLACK
6
CONTINUOUS
10
354.1575599999999895
20
-115.8962899999999934
11
354.1271749999999656
21
-115.9187739999999991
0
LINE
8
BLACK
6
CONTINUOUS
10
354.1271749999999656
20
-115.9187739999999991
11
317.2688079999999786
21
-125.1085959999999915
0
LINE
8
BLACK
6
CONTINUOUS
10
317.2688079999999786
20
-125.1085959999999915
11
294.3776009999999701
21
-145.7528319999999837
0
LINE
8
BLACK
6
CONTINUOUS
10
294.3776009999999701
20
-145.7528319999999837
11
294.3689139999999611
21
-145.7559159999999849
0
LINE
8
BLACK
6
CONTINUOUS
10
294.3689139999999611
20
-145.7559159999999849
11
294.3622249999999667
21
-145.7622639999999876
0
LINE
8
BLACK
6
CONTINUOUS
10
294.3622249999999667
20
-145.7622639999999876
11
276.6307199999999966
21
-152.5687340000000063
0
LINE
8
BLACK
6
CONTINUOUS
10
276.6307199999999966
20
-152.5687340000000063
11
261.2704099999999698
21
-163.728699000000006
0
LINE
8
BLACK
6
CONTINUOUS
10
261.2704099999999698
20
-163.728699000000006
11
249.3177279999999882
21
-178.489136000000002
0
LINE
8
BLACK
6
CONTINUOUS
10
249.3177279999999882
20
-178.489136000000002
11
249.2845099999999832
21
-178.5071729999999945
0
LINE
8
BLACK
6
CONTINUOUS
10
249.2845099999999832
20
-178.5071729999999945
11
249.2482669999999985
21
-178.496436999999986
0
LINE
8
BLACK
6
CONTINUOUS
10
249.2482669999999985
20
-178.496436999999986
11
227.1136389999999778
21
-160.572322999999983
0
LINE
8
BLACK
6
CONTINUOUS
10
227.1136389999999778
20
-160.572322999999983
11
176.9749839999999779
21
-160.5987709999999993
0
LINE
8
BLACK
6
CONTINUOUS
10
176.9749839999999779
20
-160.5987709999999993
11
154.840327000000002
21
-178.5228919999999846
0
LINE
8
BLACK
6
CONTINUOUS
10
154.840327000000002
20
-178.5228919999999846
11
154.840327000000002
21
-178.5228939999999795
0
LINE
8
BLACK
6
CONTINUOUS
10
154.840327000000002
20
-178.5228939999999795
11
154.8040839999999889
21
-178.5336299999999881
0
LINE
8
BLACK
6
CONTINUOUS
10
154.8040839999999889
20
-178.5336299999999881
11
154.8040829999999914
21
-178.5336289999999906
0
LINE
8
BLACK
6
CONTINUOUS
10
154.8040829999999914
20
-178.5336289999999906
11
154.8040829999999914
21
-178.5336299999999881
0
LINE
8
BLACK
6
CONTINUOUS
10
154.8040829999999914
20
-178.5336299999999881
11
154.7923930000000041
21
-178.5272829999999828
0
LINE
8
BLACK
6
CONTINUOUS
10
154.7923930000000041
20
-178.5272829999999828
11
154.7708649999999864
21
-178.515593999999993
0
LINE
8
BLACK
6
CONTINUOUS
10
154.7708649999999864
20
-178.515593999999993
11
142.8182119999999884
21
-163.7555009999999811
0
LINE
8
BLACK
6
CONTINUOUS
10
142.8182119999999884
20
-163.7555009999999811
11
127.4578709999999973
21
-152.5951829999999916
0
LINE
8
BLACK
6
CONTINUOUS
10
127.4578709999999973
20
-152.5951829999999916
11
109.6900109999999984
21
-145.762252999999987
0
LINE
8
BLACK
6
CONTINUOUS
10
109.6900109999999984
20
-145.762252999999987
11
109.6833359999999971
21
-145.7559109999999976
0
LINE
8
BLACK
6
CONTINUOUS
10
109.6833359999999971
20
-145.7559109999999976
11
109.6746619999999979
21
-145.7528319999999837
0
LINE
8
BLACK
6
CONTINUOUS
10
109.6746619999999979
20
-145.7528319999999837
11
86.7834749999999957
21
-125.108594999999994
0
LINE
8
BLACK
6
CONTINUOUS
10
86.7834749999999957
20
-125.108594999999994
11
49.9250919999999994
21
-115.9187739999999991
0
LINE
8
BLACK
6
CONTINUOUS
10
49.9250919999999994
20
-115.9187739999999991
11
49.8947069999999968
21
-115.8962899999999934
0
LINE
8
BLACK
6
CONTINUOUS
10
49.8947069999999968
20
-115.8962899999999934
11
49.8891199999999984
21
-115.8589059999999904
0
LINE
8
BLACK
6
CONTINUOUS
10
49.8891199999999984
20
-115.8589059999999904
11
63.6781529999999947
21
-60.5531979999999947
0
LINE
8
BLACK
6
CONTINUOUS
10
63.6781529999999947
20
-60.5531979999999947
11
63.7006370000000004
21
-60.5228129999999993
0
LINE
8
BLACK
6
CONTINUOUS
10
63.7006370000000004
20
-60.5228129999999993
11
63.7380209999999963
21
-60.5172259999999937
0
LINE
8
BLACK
6
CONTINUOUS
10
49.9969070000000002
20
-115.8348809999999958
11
86.8193380000000019
21
-125.0157389999999964
0
LINE
8
BLACK
6
CONTINUOUS
10
86.8193380000000019
20
-125.0157389999999964
11
86.8290640000000025
21
-125.0229360000000014
0
LINE
8
BLACK
6
CONTINUOUS
10
86.8290640000000025
20
-125.0229360000000014
11
86.8404649999999947
21
-125.0269839999999988
0
LINE
8
BLACK
6
CONTINUOUS
10
86.8404649999999947
20
-125.0269839999999988
11
109.7340119999999928
21
-145.6733480000000043
0
LINE
8
BLACK
6
CONTINUOUS
10
109.7340119999999928
20
-145.6733480000000043
11
127.4993789999999905
21
-152.5053199999999833
0
LINE
8
BLACK
6
CONTINUOUS
10
127.4993789999999905
20
-152.5053199999999833
11
127.5042069999999939
21
-152.5099069999999983
0
LINE
8
BLACK
6
CONTINUOUS
10
127.5042069999999939
20
-152.5099069999999983
11
127.5106819999999885
21
-152.5114619999999945
0
LINE
8
BLACK
6
CONTINUOUS
10
127.5106819999999885
20
-152.5114619999999945
11
142.8815329999999904
21
-163.6794150000000059
0
LINE
8
BLACK
6
CONTINUOUS
10
142.8815329999999904
20
-163.6794150000000059
11
142.8850189999999998
21
-163.6851039999999955
0
LINE
8
BLACK
6
CONTINUOUS
10
142.8850189999999998
20
-163.6851039999999955
11
142.8908849999999973
21
-163.6882889999999975
0
LINE
8
BLACK
6
CONTINUOUS
10
142.8908849999999973
20
-163.6882889999999975
11
154.8165459999999882
21
-178.4150520000000029
0
LINE
8
BLACK
6
CONTINUOUS
10
154.8165459999999882
20
-178.4150520000000029
11
176.9264049999999884
21
-160.5110129999999913
0
LINE
8
BLACK
6
CONTINUOUS
10
176.9264049999999884
20
-160.5110129999999913
11
176.9422209999999893
21
-160.5063269999999989
0
LINE
8
BLACK
6
CONTINUOUS
10
176.9422209999999893
20
-160.5063269999999989
11
176.9574590000000001
21
-160.5000069999999823
0
LINE
8
BLACK
6
CONTINUOUS
10
176.9574590000000001
20
-160.5000069999999823
11
227.1310909999999978
21
-160.4735399999999856
0
LINE
8
BLACK
6
CONTINUOUS
10
227.1310909999999978
20
-160.4735399999999856
11
227.1463549999999998
21
-160.4798529999999914
0
LINE
8
BLACK
6
CONTINUOUS
10
227.1463549999999998
20
-160.4798529999999914
11
227.1621969999999919
21
-160.4845459999999946
0
LINE
8
BLACK
6
CONTINUOUS
10
227.1621969999999919
20
-160.4845459999999946
11
249.2720459999999889
21
-178.3885949999999809
0
LINE
8
BLACK
6
CONTINUOUS
10
249.2720459999999889
20
-178.3885949999999809
11
261.1977410000000077
21
-163.6614859999999965
0
LINE
8
BLACK
6
CONTINUOUS
10
261.1977410000000077
20
-163.6614859999999965
11
261.2036049999999818
21
-163.6583009999999945
0
LINE
8
BLACK
6
CONTINUOUS
10
261.2036049999999818
20
-163.6583009999999945
11
261.2070929999999862
21
-163.652610999999979
0
LINE
8
BLACK
6
CONTINUOUS
10
261.2070929999999862
20
-163.652610999999979
11
276.5779229999999984
21
-152.4850019999999802
0
LINE
8
BLACK
6
CONTINUOUS
10
276.5779229999999984
20
-152.4850019999999802
11
276.5844109999999887
21
-152.4834439999999915
0
LINE
8
BLACK
6
CONTINUOUS
10
276.5844109999999887
20
-152.4834439999999915
11
276.5892529999999851
21
-152.4788499999999942
0
LINE
8
BLACK
6
CONTINUOUS
10
276.5892529999999851
20
-152.4788499999999942
11
294.3182639999999992
21
-145.6733370000000036
0
LINE
8
BLACK
6
CONTINUOUS
10
294.3182639999999992
20
-145.6733370000000036
11
317.2118179999999938
21
-125.0269839999999988
0
LINE
8
BLACK
6
CONTINUOUS
10
317.2118179999999938
20
-125.0269839999999988
11
317.2232199999999693
21
-125.0229360000000014
0
LINE
8
BLACK
6
CONTINUOUS
10
317.2232199999999693
20
-125.0229360000000014
11
317.2329449999999724
21
-125.0157399999999939
0
LINE
8
BLACK
6
CONTINUOUS
10
317.2329449999999724
20
-125.0157399999999939
11
354.0553590000000099
21
-115.8348809999999958
0
LINE
8
BLACK
6
CONTINUOUS
10
354.0553590000000099
20
-115.8348809999999958
11
340.2902320000000032
21
-60.6250140000000002
0
LINE
8
BLACK
6
CONTINUOUS
10
340.2902320000000032
20
-60.6250140000000002
11
303.4677979999999593
21
-69.8058740000000029
0
LINE
8
BLACK
6
CONTINUOUS
10
303.4677979999999593
20
-69.8058740000000029
11
303.463751000000002
21
-69.8052689999999956
0
LINE
8
BLACK
6
CONTINUOUS
10
303.463751000000002
20
-69.8052689999999956
11
303.4601209999999583
21
-69.807155999999992
0
LINE
8
BLACK
6
CONTINUOUS
10
303.4601209999999583
20
-69.807155999999992
11
303.4455389999999966
21
-69.8025469999999899
0
LINE
8
BLACK
6
CONTINUOUS
10
303.4455389999999966
20
-69.8025469999999899
11
303.4304139999999848
21
-69.8002869999999973
0
LINE
8
BLACK
6
CONTINUOUS
10
303.4304139999999848
20
-69.8002869999999973
11
303.4279799999999909
21
-69.7969969999999904
0
LINE
8
BLACK
6
CONTINUOUS
10
303.4279799999999909
20
-69.7969969999999904
11
303.4240790000000061
21
-69.7957650000000029
0
LINE
8
BLACK
6
CONTINUOUS
10
303.4240790000000061
20
-69.7957650000000029
11
294.3897289999999884
21
-62.2045609999999982
0
LINE
8
BLACK
6
CONTINUOUS
10
294.3897289999999884
20
-62.2045609999999982
11
276.679335999999978
21
-69.002923999999993
0
LINE
8
BLACK
6
CONTINUOUS
10
276.679335999999978
20
-69.002923999999993
11
276.6415499999999952
21
-69.0019350000000031
0
LINE
8
BLACK
6
CONTINUOUS
10
276.6415499999999952
20
-69.0019350000000031
11
276.6415460000000053
21
-69.001930999999999
0
LINE
8
BLACK
6
CONTINUOUS
10
276.6415460000000053
20
-69.001930999999999
11
276.6155299999999784
21
-68.9745159999999942
0
LINE
8
BLACK
6
CONTINUOUS
10
276.6155299999999784
20
-68.9745159999999942
11
276.6155299999999784
21
-68.9745130000000017
0
LINE
8
BLACK
6
CONTINUOUS
10
276.6155299999999784
20
-68.9745130000000017
11
274.1246889999999894
21
-62.4859259999999992
0
LINE
8
BLACK
6
CONTINUOUS
10
274.1246889999999894
20
-62.4859259999999992
11
256.479327000000012
21
-69.259326999999999
0
LINE
8
BLACK
6
CONTINUOUS
10
256.479327000000012
20
-69.259326999999999
11
258.9701729999999884
21
-75.7479050000000029
0
LINE
8
BLACK
6
CONTINUOUS
10
258.9701729999999884
20
-75.7479050000000029
11
258.9691839999999843
21
-75.7856909999999999
0
LINE
8
BLACK
6
CONTINUOUS
10
258.9691839999999843
20
-75.7856909999999999
11
258.9417649999999753
21
-75.8117110000000025
0
LINE
8
BLACK
6
CONTINUOUS
10
258.9417649999999753
20
-75.8117110000000025
11
258.9417639999999778
21
-75.8117099999999908
0
LINE
8
BLACK
6
CONTINUOUS
10
258.9417639999999778
20
-75.8117099999999908
11
258.9417639999999778
21
-75.8117110000000025
0
LINE
8
BLACK
6
CONTINUOUS
10
258.9417639999999778
20
-75.8117110000000025
11
241.2502989999999841
21
-82.602807999999996
0
LINE
8
BLACK
6
CONTINUOUS
10
241.2502989999999841
20
-82.602807999999996
11
242.3078259999999773
21
-85.357332999999997
0
LINE
8
BLACK
6
CONTINUOUS
10
242.3078259999999773
20
-85.357332999999997
11
242.3078280000000007
21
-85.357334999999992
0
LINE
8
BLACK
6
CONTINUOUS
10
242.3078280000000007
20
-85.357334999999992
11
242.3068389999999965
21
-85.3951220000000006
0
LINE
8
BLACK
6
CONTINUOUS
10
242.3068389999999965
20
-85.3951220000000006
11
242.2882439999999917
21
-85.4127670000000023
0
LINE
8
BLACK
6
CONTINUOUS
10
242.2882439999999917
20
-85.4127670000000023
11
242.2794219999999825
21
-85.4211409999999915
0
LINE
8
BLACK
6
CONTINUOUS
10
242.2794219999999825
20
-85.4211409999999915
11
242.279420999999985
21
-85.4211399999999941
0
LINE
8
BLACK
6
CONTINUOUS
10
242.279420999999985
20
-85.4211399999999941
11
242.279420999999985
21
-85.4211409999999915
0
LINE
8
BLACK
6
CONTINUOUS
10
242.279420999999985
20
-85.4211409999999915
11
224.54184699999999
21
-92.2302869999999899
0
LINE
8
BLACK
6
CONTINUOUS
10
224.54184699999999
20
-92.2302869999999899
11
224.5324659999999994
21
-92.2300409999999999
0
LINE
8
BLACK
6
CONTINUOUS
10
224.5324659999999994
20
-92.2300409999999999
11
224.5303480000000036
21
-92.2316670000000016
0
LINE
8
BLACK
6
CONTINUOUS
10
224.5303480000000036
20
-92.2316670000000016
11
224.5144179999999778
21
-92.2295689999999979
0
LINE
8
BLACK
6
CONTINUOUS
10
224.5144179999999778
20
-92.2295689999999979
11
224.5040609999999788
21
-92.2292989999999975
0
LINE
8
BLACK
6
CONTINUOUS
10
224.5040609999999788
20
-92.2292989999999975
11
224.5028759999999863
21
-92.2280499999999961
0
LINE
8
BLACK
6
CONTINUOUS
10
224.5028759999999863
20
-92.2280499999999961
11
224.4924069999999858
21
-92.2266719999999935
0
LINE
8
BLACK
6
CONTINUOUS
10
224.4924069999999858
20
-92.2266719999999935
11
193.8448909999999898
21
-74.5323199999999986
0
LINE
8
BLACK
6
CONTINUOUS
10
193.8448909999999898
20
-74.5323199999999986
11
183.6391500000000008
21
-92.2091829999999959
0
LINE
8
BLACK
6
CONTINUOUS
10
183.6391500000000008
20
-92.2091829999999959
11
183.6337889999999788
21
-92.2132959999999997
0
LINE
8
BLACK
6
CONTINUOUS
10
183.6337889999999788
20
-92.2132959999999997
11
183.6312039999999968
21
-92.219538
0
LINE
8
BLACK
6
CONTINUOUS
10
183.6312039999999968
20
-92.219538
11
183.6191450000000032
21
-92.2245319999999964
0
LINE
8
BLACK
6
CONTINUOUS
10
183.6191450000000032
20
-92.2245319999999964
11
183.6087899999999991
21
-92.2324789999999979
0
LINE
8
BLACK
6
CONTINUOUS
10
183.6087899999999991
20
-92.2324789999999979
11
183.6020910000000015
21
-92.2315969999999936
0
LINE
8
BLACK
6
CONTINUOUS
10
183.6020910000000015
20
-92.2315969999999936
11
183.595848999999987
21
-92.2341830000000016
0
LINE
8
BLACK
6
CONTINUOUS
10
183.595848999999987
20
-92.2341830000000016
11
179.5281200000000013
21
-92.2341799999999949
0
LINE
8
BLACK
6
CONTINUOUS
10
179.5281200000000013
20
-92.2341799999999949
11
179.5182259999999985
21
-92.2300809999999984
0
LINE
8
BLACK
6
CONTINUOUS
10
179.5182259999999985
20
-92.2300809999999984
11
179.5104199999999821
21
-92.2302859999999924
0
LINE
8
BLACK
6
CONTINUOUS
10
179.5104199999999821
20
-92.2302859999999924
11
161.772847999999982
21
-85.4211409999999915
0
LINE
8
BLACK
6
CONTINUOUS
10
161.772847999999982
20
-85.4211409999999915
11
161.7728469999999845
21
-85.4211399999999941
0
LINE
8
BLACK
6
CONTINUOUS
10
161.7728469999999845
20
-85.4211399999999941
11
161.772845999999987
21
-85.4211409999999915
0
LINE
8
BLACK
6
CONTINUOUS
10
161.772845999999987
20
-85.4211409999999915
11
161.7552000000000021
21
-85.4043939999999964
0
LINE
8
BLACK
6
CONTINUOUS
10
161.7552000000000021
20
-85.4043939999999964
11
161.7454290000000015
21
-85.3951220000000006
0
LINE
8
BLACK
6
CONTINUOUS
10
161.7454290000000015
20
-85.3951220000000006
11
161.745428000000004
21
-85.3951199999999915
0
LINE
8
BLACK
6
CONTINUOUS
10
161.745428000000004
20
-85.3951199999999915
11
161.7444409999999948
21
-85.3573339999999945
0
LINE
8
BLACK
6
CONTINUOUS
10
161.7444409999999948
20
-85.3573339999999945
11
162.8019779999999912
21
-82.6028069999999985
0
LINE
8
BLACK
6
CONTINUOUS
10
162.8019779999999912
20
-82.6028069999999985
11
145.1105149999999924
21
-75.8117139999999949
0
LINE
8
BLACK
6
CONTINUOUS
10
145.1105149999999924
20
-75.8117139999999949
11
145.0830969999999809
21
-75.7856949999999898
0
LINE
8
BLACK
6
CONTINUOUS
10
145.0830969999999809
20
-75.7856949999999898
11
145.0830959999999834
21
-75.7856939999999923
0
LINE
8
BLACK
6
CONTINUOUS
10
145.0830959999999834
20
-75.7856939999999923
11
145.0826079999999934
21
-75.767050999999995
0
LINE
8
BLACK
6
CONTINUOUS
10
145.0826079999999934
20
-75.767050999999995
11
145.0821069999999793
21
-75.7479079999999954
0
LINE
8
BLACK
6
CONTINUOUS
10
145.0821069999999793
20
-75.7479079999999954
11
145.0821080000000052
21
-75.7479060000000004
0
LINE
8
BLACK
6
CONTINUOUS
10
145.0821080000000052
20
-75.7479060000000004
11
147.5729399999999885
21
-69.259326999999999
0
LINE
8
BLACK
6
CONTINUOUS
10
147.5729399999999885
20
-69.259326999999999
11
129.927582000000001
21
-62.4859279999999941
0
LINE
8
BLACK
6
CONTINUOUS
10
129.927582000000001
20
-62.4859279999999941
11
127.4367469999999969
21
-68.9745099999999951
0
LINE
8
BLACK
6
CONTINUOUS
10
127.4367469999999969
20
-68.9745099999999951
11
127.4367479999999944
21
-68.9745130000000017
0
LINE
8
BLACK
6
CONTINUOUS
10
127.4367479999999944
20
-68.9745130000000017
11
127.4107289999999892
21
-69.001930999999999
0
LINE
8
BLACK
6
CONTINUOUS
10
127.4107289999999892
20
-69.001930999999999
11
127.4107279999999918
21
-69.0019319999999965
0
LINE
8
BLACK
6
CONTINUOUS
10
127.4107279999999918
20
-69.0019319999999965
11
127.3923300000000012
21
-69.00241299999999
0
LINE
8
BLACK
6
CONTINUOUS
10
127.3923300000000012
20
-69.00241299999999
11
127.3729429999999923
21
-69.0029210000000006
0
LINE
8
BLACK
6
CONTINUOUS
10
127.3729429999999923
20
-69.0029210000000006
11
109.6625439999999969
21
-62.2045609999999982
0
LINE
8
BLACK
6
CONTINUOUS
10
109.6625439999999969
20
-62.2045609999999982
11
100.6281959999999884
21
-69.7957650000000029
0
LINE
8
BLACK
6
CONTINUOUS
10
100.6281959999999884
20
-69.7957650000000029
11
100.6242949999999894
21
-69.7969969999999904
0
LINE
8
BLACK
6
CONTINUOUS
10
100.6242949999999894
20
-69.7969969999999904
11
100.621861999999993
21
-69.8002869999999973
0
LINE
8
BLACK
6
CONTINUOUS
10
100.621861999999993
20
-69.8002869999999973
11
100.6067339999999888
21
-69.8025469999999899
0
LINE
8
BLACK
6
CONTINUOUS
10
100.6067339999999888
20
-69.8025469999999899
11
100.5921539999999936
21
-69.807155999999992
0
LINE
8
BLACK
6
CONTINUOUS
10
100.5921539999999936
20
-69.807155999999992
11
100.588522999999995
21
-69.8052689999999956
0
LINE
8
BLACK
6
CONTINUOUS
10
100.588522999999995
20
-69.8052689999999956
11
100.5844779999999901
21
-69.8058740000000029
0
LINE
8
BLACK
6
CONTINUOUS
10
100.5844779999999901
20
-69.8058740000000029
11
63.7620450000000005
21
-60.6250129999999956
0
LINE
8
BLACK
6
CONTINUOUS
10
63.7620450000000005
20
-60.6250129999999956
11
49.9969070000000002
21
-115.8348809999999958
  0
ENDSEC
  0
EOF
